<svg xmlns="http://www.w3.org/2000/svg" xmlns:xlink="http://www.w3.org/1999/xlink" viewBox="0 0 400 155" width="300" height="110" preserveAspectRatio="xMidYMid meet" style="width: 100%; height: 100%; content-visibility: visible;"><defs><clipPath id="__lottie_element_233"><rect width="400" height="155" x="0" y="0"></rect></clipPath><clipPath id="__lottie_element_235"><path d="M0,0 L717,0 L717,166 L0,166z"></path></clipPath><clipPath id="__lottie_element_1024"><path d="M0,0 L32,0 L32,32 L0,32z"></path></clipPath><clipPath id="__lottie_element_1037"><path d="M0,0 L32,0 L32,32 L0,32z"></path></clipPath><clipPath id="__lottie_element_1050"><path d="M0,0 L32,0 L32,32 L0,32z"></path></clipPath></defs><g clip-path="url(#__lottie_element_233)"><g clip-path="url(#__lottie_element_235)" transform="matrix(0.550000011920929,0,0,0.550000011920929,2.8249969482421875,36.349998474121094)" opacity="1" style="display: block;"><g transform="matrix(1,0,0,0.9998999834060669,119.33300018310547,132.2703094482422)" opacity="0.99902" style="display: block;"><g opacity="1" transform="matrix(2,0,0,2,0,0)"><path fill="rgb(64,64,64)" fill-opacity="1" d=" M59.666500091552734,-16.573999404907227 C59.666500091552734,-16.573999404907227 59.666500091552734,16.573999404907227 59.666500091552734,16.573999404907227 C59.666500091552734,16.573999404907227 -59.666500091552734,16.573999404907227 -59.666500091552734,16.573999404907227 C-59.666500091552734,16.573999404907227 -59.666500091552734,-16.573999404907227 -59.666500091552734,-16.573999404907227 C-59.666500091552734,-16.573999404907227 59.666500091552734,-16.573999404907227 59.666500091552734,-16.573999404907227z"></path></g></g><g transform="matrix(1,0,0,0.9998999834060669,358,132.2703094482422)" opacity="0.99902" style="display: block;"><g opacity="1" transform="matrix(2,0,0,2,0,0)"><path fill="rgb(104,104,104)" fill-opacity="1" d=" M59.666500091552734,-16.573999404907227 C59.666500091552734,-16.573999404907227 59.666500091552734,16.573999404907227 59.666500091552734,16.573999404907227 C59.666500091552734,16.573999404907227 -59.666500091552734,16.573999404907227 -59.666500091552734,16.573999404907227 C-59.666500091552734,16.573999404907227 -59.666500091552734,-16.573999404907227 -59.666500091552734,-16.573999404907227 C-59.666500091552734,-16.573999404907227 59.666500091552734,-16.573999404907227 59.666500091552734,-16.573999404907227z"></path></g></g><g transform="matrix(1,0,0,0.9998999834060669,596.6669921875,132.2703094482422)" opacity="0.99902" style="display: block;"><g opacity="1" transform="matrix(2,0,0,2,0,0)"><path fill="rgb(170,238,196)" fill-opacity="1" d=" M59.666500091552734,-16.573999404907227 C59.666500091552734,-16.573999404907227 59.666500091552734,16.573999404907227 59.666500091552734,16.573999404907227 C59.666500091552734,16.573999404907227 -59.666500091552734,16.573999404907227 -59.666500091552734,16.573999404907227 C-59.666500091552734,16.573999404907227 -59.666500091552734,-16.573999404907227 -59.666500091552734,-16.573999404907227 C-59.666500091552734,-16.573999404907227 59.666500091552734,-16.573999404907227 59.666500091552734,-16.573999404907227z"></path></g></g><g transform="matrix(-0.9994699954986572,0,0,-0.9994699954986572,1.3259999752044678,52.07014083862305)" opacity="0.9992400000000001" style="display: block;"><g opacity="1" transform="matrix(0,2,-2,0,0,0)"><path stroke-linecap="butt" stroke-linejoin="miter" fill-opacity="0" stroke-miterlimit="4" stroke-dasharray=" 0.663 2.652" stroke-dashoffset="0" stroke="rgb(255,255,255)" stroke-opacity="0.42" stroke-width="0.663" d=" M-20.882999420166016,0 C-20.882999420166016,0 20.882999420166016,0 20.882999420166016,0"></path></g></g><g transform="matrix(-0.9991000294685364,0,0,-0.9991000294685364,238.66700744628906,53.411590576171875)" opacity="0.99958" style="display: block;"><g opacity="1" transform="matrix(0,2,-2,0,0,0)"><path stroke-linecap="butt" stroke-linejoin="miter" fill-opacity="0" stroke-miterlimit="4" stroke-dasharray=" 0.663 2.652" stroke-dashoffset="0" stroke="rgb(255,255,255)" stroke-opacity="0.42" stroke-width="0.663" d=" M-20.882999420166016,0 C-20.882999420166016,0 20.882999420166016,0 20.882999420166016,0"></path></g></g><g transform="matrix(-0.9994699954986572,0,0,-0.9994699954986572,477.3330078125,53.39613723754883)" opacity="0.9992400000000001" style="display: block;"><g opacity="1" transform="matrix(0,2,-2,0,0,0)"><path stroke-linecap="butt" stroke-linejoin="miter" fill-opacity="0" stroke-miterlimit="4" stroke-dasharray=" 0.663 2.652" stroke-dashoffset="0" stroke="rgb(255,255,255)" stroke-opacity="0.42" stroke-width="0.663" d=" M-20.882999420166016,0 C-20.882999420166016,0 20.882999420166016,0 20.882999420166016,0"></path></g></g><g fill="rgb(255,255,255)" font-size="10.6074104309082" font-family="Apercu Pro" font-style="normal" font-weight="400" aria-label="Junior" transform="matrix(2.0018301010131836,0,0,2.0018301010131836,171.44952392578125,32.8461799621582)" opacity="0.9997900000000001" style="display: block;"><g stroke-linecap="butt" stroke-linejoin="round" stroke-miterlimit="4" transform="matrix(1,0,0,1,-53.03704071044922,-8.401142120361328)" opacity="1" style="display: inherit;"><g><g transform="matrix(1,0,0,1,0,0)" opacity="1" style="display: block;"><path d=" M2.46,0.08 C3.1,0.08 3.63,-0.12 4.03,-0.52 C4.43,-0.92 4.64,-1.52 4.64,-2.31 C4.64,-2.31 4.64,-7.43 4.64,-7.43 C4.64,-7.43 3.72,-7.43 3.72,-7.43 C3.72,-7.43 3.72,-2.22 3.72,-2.22 C3.72,-1.72 3.61,-1.36 3.38,-1.12 C3.15,-0.89 2.84,-0.77 2.46,-0.77 C2.11,-0.77 1.83,-0.88 1.62,-1.1 C1.42,-1.31 1.29,-1.62 1.23,-2.03 C1.23,-2.03 0.3,-1.82 0.3,-1.82 C0.37,-1.27 0.59,-0.81 0.96,-0.45 C1.33,-0.09 1.83,0.08 2.46,0.08z"></path><g opacity="1" transform="matrix(0.10607410222291946,0,0,0.10607410222291946,0,0)"></g></g></g></g><g stroke-linecap="butt" stroke-linejoin="round" stroke-miterlimit="4" transform="matrix(1,0,0,1,-47.6802978515625,-8.401142120361328)" opacity="1" style="display: inherit;"><g><g transform="matrix(1,0,0,1,0,0)" opacity="1" style="display: block;"><path d=" M2.44,0.08 C2.81,0.08 3.15,-0.02 3.46,-0.22 C3.78,-0.42 4.03,-0.69 4.22,-1.03 C4.22,-1.03 4.22,0 4.22,0 C4.22,0 5.09,0 5.09,0 C5.09,0 5.09,-5.35 5.09,-5.35 C5.09,-5.35 4.22,-5.35 4.22,-5.35 C4.22,-5.35 4.22,-3.08 4.22,-3.08 C4.22,-2.6 4.15,-2.17 4.01,-1.81 C3.88,-1.45 3.69,-1.18 3.45,-0.99 C3.21,-0.8 2.94,-0.7 2.65,-0.7 C2.33,-0.7 2.09,-0.79 1.93,-0.98 C1.76,-1.17 1.68,-1.45 1.68,-1.81 C1.68,-1.81 1.68,-5.35 1.68,-5.35 C1.68,-5.35 0.8,-5.35 0.8,-5.35 C0.8,-5.35 0.8,-1.62 0.8,-1.62 C0.8,-1.08 0.94,-0.66 1.24,-0.36 C1.54,-0.06 1.94,0.08 2.44,0.08z"></path><g opacity="1" transform="matrix(0.10607410222291946,0,0,0.10607410222291946,0,0)"></g></g></g></g><g stroke-linecap="butt" stroke-linejoin="round" stroke-miterlimit="4" transform="matrix(1,0,0,1,-41.79318618774414,-8.401142120361328)" opacity="1" style="display: inherit;"><g><g transform="matrix(1,0,0,1,0,0)" opacity="1" style="display: block;"><path d=" M0.8,0 C0.8,0 1.68,0 1.68,0 C1.68,0 1.68,-2.28 1.68,-2.28 C1.68,-2.76 1.74,-3.18 1.88,-3.54 C2.02,-3.89 2.21,-4.17 2.45,-4.36 C2.68,-4.55 2.95,-4.65 3.24,-4.65 C3.56,-4.65 3.81,-4.55 3.97,-4.36 C4.14,-4.18 4.22,-3.9 4.22,-3.53 C4.22,-3.53 4.22,0 4.22,0 C4.22,0 5.09,0 5.09,0 C5.09,0 5.09,-3.72 5.09,-3.72 C5.09,-4.27 4.94,-4.69 4.65,-4.99 C4.35,-5.28 3.95,-5.43 3.45,-5.43 C3.09,-5.43 2.75,-5.33 2.43,-5.13 C2.12,-4.93 1.87,-4.66 1.68,-4.32 C1.68,-4.32 1.68,-5.35 1.68,-5.35 C1.68,-5.35 0.8,-5.35 0.8,-5.35 C0.8,-5.35 0.8,0 0.8,0z"></path><g opacity="1" transform="matrix(0.10607410222291946,0,0,0.10607410222291946,0,0)"></g></g></g></g><g stroke-linecap="butt" stroke-linejoin="round" stroke-miterlimit="4" transform="matrix(1,0,0,1,-35.91667938232422,-8.401142120361328)" opacity="1" style="display: inherit;"><g><g transform="matrix(1,0,0,1,0,0)" opacity="1" style="display: block;"><path d=" M0.8,0 C0.8,0 1.68,0 1.68,0 C1.68,0 1.68,-5.35 1.68,-5.35 C1.68,-5.35 0.8,-5.35 0.8,-5.35 C0.8,-5.35 0.8,0 0.8,0z M1.23,-6.25 C1.41,-6.25 1.57,-6.31 1.69,-6.43 C1.82,-6.55 1.88,-6.7 1.88,-6.88 C1.88,-7.07 1.82,-7.22 1.69,-7.34 C1.57,-7.46 1.41,-7.52 1.23,-7.52 C1.05,-7.52 0.9,-7.46 0.78,-7.34 C0.66,-7.22 0.59,-7.07 0.59,-6.88 C0.59,-6.71 0.66,-6.56 0.78,-6.43 C0.9,-6.31 1.05,-6.25 1.23,-6.25z"></path><g opacity="1" transform="matrix(0.10607410222291946,0,0,0.10607410222291946,0,0)"></g></g></g></g><g stroke-linecap="butt" stroke-linejoin="round" stroke-miterlimit="4" transform="matrix(1,0,0,1,-33.445152282714844,-8.401142120361328)" opacity="1" style="display: inherit;"><g><g transform="matrix(1,0,0,1,0,0)" opacity="1" style="display: block;"><path d=" M3.07,-0.7 C2.72,-0.7 2.42,-0.79 2.17,-0.98 C1.92,-1.16 1.73,-1.4 1.6,-1.7 C1.47,-2 1.4,-2.33 1.4,-2.67 C1.4,-3.02 1.47,-3.34 1.6,-3.64 C1.73,-3.94 1.92,-4.19 2.17,-4.37 C2.42,-4.55 2.72,-4.65 3.07,-4.65 C3.41,-4.65 3.71,-4.55 3.96,-4.37 C4.21,-4.19 4.4,-3.94 4.53,-3.64 C4.66,-3.34 4.72,-3.02 4.72,-2.67 C4.72,-2.33 4.66,-2 4.53,-1.7 C4.4,-1.4 4.21,-1.16 3.96,-0.98 C3.71,-0.79 3.41,-0.7 3.07,-0.7z M3.07,0.08 C3.58,0.08 4.03,-0.04 4.42,-0.29 C4.81,-0.54 5.11,-0.88 5.32,-1.3 C5.53,-1.73 5.63,-2.19 5.63,-2.67 C5.63,-3.16 5.53,-3.62 5.32,-4.04 C5.11,-4.47 4.81,-4.8 4.42,-5.05 C4.03,-5.31 3.58,-5.43 3.07,-5.43 C2.55,-5.43 2.09,-5.31 1.7,-5.05 C1.31,-4.8 1.01,-4.47 0.8,-4.04 C0.59,-3.62 0.49,-3.16 0.49,-2.67 C0.49,-2.19 0.59,-1.73 0.8,-1.3 C1.01,-0.88 1.31,-0.54 1.7,-0.29 C2.09,-0.04 2.55,0.08 3.07,0.08z"></path><g opacity="1" transform="matrix(0.10607410222291946,0,0,0.10607410222291946,0,0)"></g></g></g></g><g stroke-linecap="butt" stroke-linejoin="round" stroke-miterlimit="4" transform="matrix(1,0,0,1,-27.324676513671875,-8.401142120361328)" opacity="1" style="display: inherit;"><g><g transform="matrix(1,0,0,1,0,0)" opacity="1" style="display: block;"><path d=" M0.8,0 C0.8,0 1.68,0 1.68,0 C1.68,0 1.68,-2.02 1.68,-2.02 C1.68,-2.87 1.81,-3.52 2.08,-3.97 C2.36,-4.41 2.7,-4.64 3.13,-4.64 C3.37,-4.64 3.6,-4.58 3.82,-4.46 C3.82,-4.46 4,-5.27 4,-5.27 C3.73,-5.38 3.48,-5.43 3.25,-5.43 C2.91,-5.43 2.6,-5.34 2.33,-5.17 C2.06,-5 1.85,-4.75 1.68,-4.42 C1.68,-4.42 1.68,-5.35 1.68,-5.35 C1.68,-5.35 0.8,-5.35 0.8,-5.35 C0.8,-5.35 0.8,0 0.8,0z"></path><g opacity="1" transform="matrix(0.10607410222291946,0,0,0.10607410222291946,0,0)"></g></g></g></g></g><g fill="rgb(255,255,255)" font-size="10.6074104309082" font-family="Apercu Pro" font-style="normal" font-weight="400" aria-label="Intermediate" transform="matrix(2.0007801055908203,0,0,2.0007801055908203,360.69189453125,32.83845520019531)" opacity="0.99929" style="display: block;"><g stroke-linecap="butt" stroke-linejoin="round" stroke-miterlimit="4" transform="matrix(1,0,0,1,-53.03704071044922,-8.401142120361328)" opacity="1" style="display: inherit;"><g><g transform="matrix(1,0,0,1,0,0)" opacity="1" style="display: block;"><path d=" M0.92,0 C0.92,0 1.85,0 1.85,0 C1.85,0 1.85,-7.43 1.85,-7.43 C1.85,-7.43 0.92,-7.43 0.92,-7.43 C0.92,-7.43 0.92,0 0.92,0z"></path><g opacity="1" transform="matrix(0.10607410222291946,0,0,0.10607410222291946,0,0)"></g></g></g></g><g stroke-linecap="butt" stroke-linejoin="round" stroke-miterlimit="4" transform="matrix(1,0,0,1,-50.27911376953125,-8.401142120361328)" opacity="1" style="display: inherit;"><g><g transform="matrix(1,0,0,1,0,0)" opacity="1" style="display: block;"><path d=" M0.8,0 C0.8,0 1.68,0 1.68,0 C1.68,0 1.68,-2.28 1.68,-2.28 C1.68,-2.76 1.74,-3.18 1.88,-3.54 C2.02,-3.89 2.21,-4.17 2.45,-4.36 C2.68,-4.55 2.95,-4.65 3.24,-4.65 C3.56,-4.65 3.81,-4.55 3.97,-4.36 C4.14,-4.18 4.22,-3.9 4.22,-3.53 C4.22,-3.53 4.22,0 4.22,0 C4.22,0 5.09,0 5.09,0 C5.09,0 5.09,-3.72 5.09,-3.72 C5.09,-4.27 4.94,-4.69 4.65,-4.99 C4.35,-5.28 3.95,-5.43 3.45,-5.43 C3.09,-5.43 2.75,-5.33 2.43,-5.13 C2.12,-4.93 1.87,-4.66 1.68,-4.32 C1.68,-4.32 1.68,-5.35 1.68,-5.35 C1.68,-5.35 0.8,-5.35 0.8,-5.35 C0.8,-5.35 0.8,0 0.8,0z"></path><g opacity="1" transform="matrix(0.10607410222291946,0,0,0.10607410222291946,0,0)"></g></g></g></g><g stroke-linecap="butt" stroke-linejoin="round" stroke-miterlimit="4" transform="matrix(1,0,0,1,-44.40260696411133,-8.401142120361328)" opacity="1" style="display: inherit;"><g><g transform="matrix(1,0,0,1,0,0)" opacity="1" style="display: block;"><path d=" M2.57,0.08 C2.92,0.08 3.22,0.02 3.48,-0.11 C3.48,-0.11 3.26,-0.85 3.26,-0.85 C3.09,-0.75 2.88,-0.7 2.64,-0.7 C2.15,-0.7 1.9,-0.99 1.9,-1.57 C1.9,-1.57 1.9,-4.56 1.9,-4.56 C1.9,-4.56 3.33,-4.56 3.33,-4.56 C3.33,-4.56 3.33,-5.35 3.33,-5.35 C3.33,-5.35 1.9,-5.35 1.9,-5.35 C1.9,-5.35 1.9,-7.51 1.9,-7.51 C1.9,-7.51 1.02,-6.95 1.02,-6.95 C1.02,-6.95 1.02,-5.35 1.02,-5.35 C1.02,-5.35 0.12,-5.35 0.12,-5.35 C0.12,-5.35 0.12,-4.56 0.12,-4.56 C0.12,-4.56 1.02,-4.56 1.02,-4.56 C1.02,-4.56 1.02,-1.63 1.02,-1.63 C1.02,-1.06 1.16,-0.63 1.43,-0.34 C1.71,-0.06 2.09,0.08 2.57,0.08z"></path><g opacity="1" transform="matrix(0.10607410222291946,0,0,0.10607410222291946,0,0)"></g></g></g></g><g stroke-linecap="butt" stroke-linejoin="round" stroke-miterlimit="4" transform="matrix(1,0,0,1,-40.668800354003906,-8.401142120361328)" opacity="1" style="display: inherit;"><g><g transform="matrix(1,0,0,1,0,0)" opacity="1" style="display: block;"><path d=" M1.44,-3.29 C1.52,-3.68 1.69,-4.01 1.95,-4.26 C2.21,-4.52 2.54,-4.65 2.93,-4.65 C3.35,-4.65 3.69,-4.52 3.95,-4.28 C4.2,-4.04 4.36,-3.71 4.42,-3.29 C4.42,-3.29 1.44,-3.29 1.44,-3.29z M2.93,0.08 C3.47,0.08 3.93,-0.04 4.29,-0.28 C4.65,-0.52 4.96,-0.9 5.22,-1.42 C5.22,-1.42 4.48,-1.74 4.48,-1.74 C4.29,-1.37 4.08,-1.11 3.85,-0.94 C3.62,-0.78 3.32,-0.7 2.95,-0.7 C2.47,-0.7 2.09,-0.87 1.82,-1.21 C1.55,-1.56 1.41,-2 1.4,-2.54 C1.4,-2.54 5.31,-2.54 5.31,-2.54 C5.31,-2.54 5.31,-2.91 5.31,-2.91 C5.31,-3.37 5.22,-3.8 5.03,-4.18 C4.84,-4.56 4.56,-4.87 4.2,-5.09 C3.84,-5.32 3.42,-5.43 2.93,-5.43 C2.43,-5.43 1.99,-5.31 1.62,-5.06 C1.26,-4.81 0.97,-4.48 0.78,-4.06 C0.59,-3.64 0.49,-3.18 0.49,-2.67 C0.49,-2.17 0.59,-1.71 0.78,-1.29 C0.97,-0.87 1.26,-0.53 1.62,-0.29 C1.99,-0.04 2.43,0.08 2.93,0.08z"></path><g opacity="1" transform="matrix(0.10607410222291946,0,0,0.10607410222291946,0,0)"></g></g></g></g><g stroke-linecap="butt" stroke-linejoin="round" stroke-miterlimit="4" transform="matrix(1,0,0,1,-34.866546630859375,-8.401142120361328)" opacity="1" style="display: inherit;"><g><g transform="matrix(1,0,0,1,0,0)" opacity="1" style="display: block;"><path d=" M0.8,0 C0.8,0 1.68,0 1.68,0 C1.68,0 1.68,-2.02 1.68,-2.02 C1.68,-2.87 1.81,-3.52 2.08,-3.97 C2.36,-4.41 2.7,-4.64 3.13,-4.64 C3.37,-4.64 3.6,-4.58 3.82,-4.46 C3.82,-4.46 4,-5.27 4,-5.27 C3.73,-5.38 3.48,-5.43 3.25,-5.43 C2.91,-5.43 2.6,-5.34 2.33,-5.17 C2.06,-5 1.85,-4.75 1.68,-4.42 C1.68,-4.42 1.68,-5.35 1.68,-5.35 C1.68,-5.35 0.8,-5.35 0.8,-5.35 C0.8,-5.35 0.8,0 0.8,0z"></path><g opacity="1" transform="matrix(0.10607410222291946,0,0,0.10607410222291946,0,0)"></g></g></g></g><g stroke-linecap="butt" stroke-linejoin="round" stroke-miterlimit="4" transform="matrix(1,0,0,1,-30.750869750976562,-8.401142120361328)" opacity="1" style="display: inherit;"><g><g transform="matrix(1,0,0,1,0,0)" opacity="1" style="display: block;"><path d=" M0.8,0 C0.8,0 1.68,0 1.68,0 C1.68,0 1.68,-2.22 1.68,-2.22 C1.68,-2.72 1.74,-3.15 1.87,-3.52 C1.99,-3.89 2.17,-4.17 2.39,-4.36 C2.61,-4.55 2.85,-4.65 3.12,-4.65 C3.43,-4.65 3.65,-4.56 3.78,-4.39 C3.91,-4.21 3.98,-3.94 3.98,-3.57 C3.98,-3.57 3.98,0 3.98,0 C3.98,0 4.85,0 4.85,0 C4.85,0 4.85,-2.26 4.85,-2.26 C4.85,-2.75 4.91,-3.17 5.04,-3.53 C5.17,-3.89 5.35,-4.17 5.57,-4.36 C5.79,-4.55 6.03,-4.65 6.3,-4.65 C6.6,-4.65 6.82,-4.56 6.96,-4.39 C7.09,-4.21 7.16,-3.94 7.16,-3.57 C7.16,-3.57 7.16,0 7.16,0 C7.16,0 8.03,0 8.03,0 C8.03,0 8.03,-3.71 8.03,-3.71 C8.03,-4.86 7.52,-5.43 6.49,-5.43 C6.15,-5.43 5.82,-5.32 5.52,-5.11 C5.21,-4.9 4.97,-4.62 4.78,-4.27 C4.69,-4.66 4.52,-4.94 4.27,-5.14 C4.02,-5.33 3.7,-5.43 3.32,-5.43 C2.96,-5.43 2.64,-5.33 2.37,-5.13 C2.09,-4.94 1.86,-4.66 1.68,-4.32 C1.68,-4.32 1.68,-5.35 1.68,-5.35 C1.68,-5.35 0.8,-5.35 0.8,-5.35 C0.8,-5.35 0.8,0 0.8,0z"></path><g opacity="1" transform="matrix(0.10607410222291946,0,0,0.10607410222291946,0,0)"></g></g></g></g><g stroke-linecap="butt" stroke-linejoin="round" stroke-miterlimit="4" transform="matrix(1,0,0,1,-21.936113357543945,-8.401142120361328)" opacity="1" style="display: inherit;"><g><g transform="matrix(1,0,0,1,0,0)" opacity="1" style="display: block;"><path d=" M1.44,-3.29 C1.52,-3.68 1.69,-4.01 1.95,-4.26 C2.21,-4.52 2.54,-4.65 2.93,-4.65 C3.35,-4.65 3.69,-4.52 3.95,-4.28 C4.2,-4.04 4.36,-3.71 4.42,-3.29 C4.42,-3.29 1.44,-3.29 1.44,-3.29z M2.93,0.08 C3.47,0.08 3.93,-0.04 4.29,-0.28 C4.65,-0.52 4.96,-0.9 5.22,-1.42 C5.22,-1.42 4.48,-1.74 4.48,-1.74 C4.29,-1.37 4.08,-1.11 3.85,-0.94 C3.62,-0.78 3.32,-0.7 2.95,-0.7 C2.47,-0.7 2.09,-0.87 1.82,-1.21 C1.55,-1.56 1.41,-2 1.4,-2.54 C1.4,-2.54 5.31,-2.54 5.31,-2.54 C5.31,-2.54 5.31,-2.91 5.31,-2.91 C5.31,-3.37 5.22,-3.8 5.03,-4.18 C4.84,-4.56 4.56,-4.87 4.2,-5.09 C3.84,-5.32 3.42,-5.43 2.93,-5.43 C2.43,-5.43 1.99,-5.31 1.62,-5.06 C1.26,-4.81 0.97,-4.48 0.78,-4.06 C0.59,-3.64 0.49,-3.18 0.49,-2.67 C0.49,-2.17 0.59,-1.71 0.78,-1.29 C0.97,-0.87 1.26,-0.53 1.62,-0.29 C1.99,-0.04 2.43,0.08 2.93,0.08z"></path><g opacity="1" transform="matrix(0.10607410222291946,0,0,0.10607410222291946,0,0)"></g></g></g></g><g stroke-linecap="butt" stroke-linejoin="round" stroke-miterlimit="4" transform="matrix(1,0,0,1,-16.133861541748047,-8.401142120361328)" opacity="1" style="display: inherit;"><g><g transform="matrix(1,0,0,1,0,0)" opacity="1" style="display: block;"><path d=" M2.97,-0.7 C2.48,-0.7 2.1,-0.88 1.82,-1.25 C1.54,-1.61 1.4,-2.09 1.4,-2.67 C1.4,-3.26 1.54,-3.74 1.82,-4.1 C2.1,-4.46 2.48,-4.65 2.97,-4.65 C3.46,-4.65 3.84,-4.46 4.12,-4.1 C4.39,-3.74 4.53,-3.26 4.53,-2.67 C4.53,-2.08 4.39,-1.6 4.12,-1.24 C3.84,-0.88 3.46,-0.7 2.97,-0.7z M2.85,0.08 C3.19,0.08 3.51,0.01 3.81,-0.15 C4.11,-0.3 4.32,-0.49 4.46,-0.7 C4.46,-0.7 4.46,0 4.46,0 C4.46,0 5.32,0 5.32,0 C5.32,0 5.32,-7.51 5.32,-7.51 C5.32,-7.51 4.46,-7.51 4.46,-7.51 C4.46,-7.51 4.46,-4.68 4.46,-4.68 C4.28,-4.91 4.05,-5.1 3.78,-5.23 C3.5,-5.36 3.19,-5.43 2.85,-5.43 C2.35,-5.43 1.92,-5.31 1.57,-5.08 C1.22,-4.84 0.95,-4.51 0.76,-4.09 C0.58,-3.68 0.49,-3.2 0.49,-2.67 C0.49,-2.14 0.58,-1.67 0.76,-1.25 C0.95,-0.83 1.22,-0.51 1.57,-0.27 C1.92,-0.03 2.35,0.08 2.85,0.08z"></path><g opacity="1" transform="matrix(0.10607410222291946,0,0,0.10607410222291946,0,0)"></g></g></g></g><g stroke-linecap="butt" stroke-linejoin="round" stroke-miterlimit="4" transform="matrix(1,0,0,1,-10.013381958007812,-8.401142120361328)" opacity="1" style="display: inherit;"><g><g transform="matrix(1,0,0,1,0,0)" opacity="1" style="display: block;"><path d=" M0.8,0 C0.8,0 1.68,0 1.68,0 C1.68,0 1.68,-5.35 1.68,-5.35 C1.68,-5.35 0.8,-5.35 0.8,-5.35 C0.8,-5.35 0.8,0 0.8,0z M1.23,-6.25 C1.41,-6.25 1.57,-6.31 1.69,-6.43 C1.82,-6.55 1.88,-6.7 1.88,-6.88 C1.88,-7.07 1.82,-7.22 1.69,-7.34 C1.57,-7.46 1.41,-7.52 1.23,-7.52 C1.05,-7.52 0.9,-7.46 0.78,-7.34 C0.66,-7.22 0.59,-7.07 0.59,-6.88 C0.59,-6.71 0.66,-6.56 0.78,-6.43 C0.9,-6.31 1.05,-6.25 1.23,-6.25z"></path><g opacity="1" transform="matrix(0.10607410222291946,0,0,0.10607410222291946,0,0)"></g></g></g></g><g stroke-linecap="butt" stroke-linejoin="round" stroke-miterlimit="4" transform="matrix(1,0,0,1,-7.541859149932861,-8.401142120361328)" opacity="1" style="display: inherit;"><g><g transform="matrix(1,0,0,1,0,0)" opacity="1" style="display: block;"><path d=" M2.32,-0.7 C2.04,-0.7 1.82,-0.77 1.66,-0.92 C1.5,-1.07 1.42,-1.28 1.42,-1.55 C1.42,-1.87 1.55,-2.11 1.79,-2.28 C2.04,-2.45 2.41,-2.54 2.91,-2.54 C2.91,-2.54 3.81,-2.54 3.81,-2.54 C3.81,-2.54 3.81,-2.37 3.81,-2.37 C3.81,-1.99 3.73,-1.68 3.59,-1.43 C3.44,-1.18 3.25,-0.99 3.02,-0.88 C2.8,-0.76 2.56,-0.7 2.32,-0.7z M2.16,0.08 C2.91,0.08 3.46,-0.2 3.83,-0.77 C3.83,-0.77 3.99,0 3.99,0 C3.99,0 4.68,0 4.68,0 C4.68,0 4.68,-3.43 4.68,-3.43 C4.68,-4.06 4.49,-4.56 4.13,-4.91 C3.76,-5.26 3.27,-5.43 2.67,-5.43 C2.17,-5.43 1.74,-5.3 1.37,-5.03 C1.01,-4.76 0.79,-4.4 0.72,-3.96 C0.72,-3.96 1.51,-3.78 1.51,-3.78 C1.7,-4.36 2.09,-4.65 2.67,-4.65 C3.01,-4.65 3.29,-4.56 3.5,-4.38 C3.7,-4.2 3.81,-3.91 3.81,-3.52 C3.81,-3.52 3.81,-3.29 3.81,-3.29 C3.81,-3.29 2.87,-3.29 2.87,-3.29 C2.14,-3.29 1.56,-3.14 1.14,-2.84 C0.72,-2.54 0.51,-2.1 0.51,-1.54 C0.51,-1 0.66,-0.6 0.98,-0.32 C1.29,-0.05 1.68,0.08 2.16,0.08z"></path><g opacity="1" transform="matrix(0.10607410222291946,0,0,0.10607410222291946,0,0)"></g></g></g></g><g stroke-linecap="butt" stroke-linejoin="round" stroke-miterlimit="4" transform="matrix(1,0,0,1,-2.185116767883301,-8.401142120361328)" opacity="1" style="display: inherit;"><g><g transform="matrix(1,0,0,1,0,0)" opacity="1" style="display: block;"><path d=" M2.57,0.08 C2.92,0.08 3.22,0.02 3.48,-0.11 C3.48,-0.11 3.26,-0.85 3.26,-0.85 C3.09,-0.75 2.88,-0.7 2.64,-0.7 C2.15,-0.7 1.9,-0.99 1.9,-1.57 C1.9,-1.57 1.9,-4.56 1.9,-4.56 C1.9,-4.56 3.33,-4.56 3.33,-4.56 C3.33,-4.56 3.33,-5.35 3.33,-5.35 C3.33,-5.35 1.9,-5.35 1.9,-5.35 C1.9,-5.35 1.9,-7.51 1.9,-7.51 C1.9,-7.51 1.02,-6.95 1.02,-6.95 C1.02,-6.95 1.02,-5.35 1.02,-5.35 C1.02,-5.35 0.12,-5.35 0.12,-5.35 C0.12,-5.35 0.12,-4.56 0.12,-4.56 C0.12,-4.56 1.02,-4.56 1.02,-4.56 C1.02,-4.56 1.02,-1.63 1.02,-1.63 C1.02,-1.06 1.16,-0.63 1.43,-0.34 C1.71,-0.06 2.09,0.08 2.57,0.08z"></path><g opacity="1" transform="matrix(0.10607410222291946,0,0,0.10607410222291946,0,0)"></g></g></g></g><g stroke-linecap="butt" stroke-linejoin="round" stroke-miterlimit="4" transform="matrix(1,0,0,1,1.5486944913864136,-8.401142120361328)" opacity="1" style="display: inherit;"><g><g transform="matrix(1,0,0,1,0,0)" opacity="1" style="display: block;"><path d=" M1.44,-3.29 C1.52,-3.68 1.69,-4.01 1.95,-4.26 C2.21,-4.52 2.54,-4.65 2.93,-4.65 C3.35,-4.65 3.69,-4.52 3.95,-4.28 C4.2,-4.04 4.36,-3.71 4.42,-3.29 C4.42,-3.29 1.44,-3.29 1.44,-3.29z M2.93,0.08 C3.47,0.08 3.93,-0.04 4.29,-0.28 C4.65,-0.52 4.96,-0.9 5.22,-1.42 C5.22,-1.42 4.48,-1.74 4.48,-1.74 C4.29,-1.37 4.08,-1.11 3.85,-0.94 C3.62,-0.78 3.32,-0.7 2.95,-0.7 C2.47,-0.7 2.09,-0.87 1.82,-1.21 C1.55,-1.56 1.41,-2 1.4,-2.54 C1.4,-2.54 5.31,-2.54 5.31,-2.54 C5.31,-2.54 5.31,-2.91 5.31,-2.91 C5.31,-3.37 5.22,-3.8 5.03,-4.18 C4.84,-4.56 4.56,-4.87 4.2,-5.09 C3.84,-5.32 3.42,-5.43 2.93,-5.43 C2.43,-5.43 1.99,-5.31 1.62,-5.06 C1.26,-4.81 0.97,-4.48 0.78,-4.06 C0.59,-3.64 0.49,-3.18 0.49,-2.67 C0.49,-2.17 0.59,-1.71 0.78,-1.29 C0.97,-0.87 1.26,-0.53 1.62,-0.29 C1.99,-0.04 2.43,0.08 2.93,0.08z"></path><g opacity="1" transform="matrix(0.10607410222291946,0,0,0.10607410222291946,0,0)"></g></g></g></g></g><g fill="rgb(255,255,255)" font-size="10.6074104309082" font-family="Apercu Pro" font-style="normal" font-weight="400" aria-label="Advanced" transform="matrix(2.0018301010131836,0,0,2.0018301010131836,599.374755859375,32.84716796875)" opacity="0.9997900000000001" style="display: block;"><g stroke-linecap="butt" stroke-linejoin="round" stroke-miterlimit="4" transform="matrix(1,0,0,1,-53.03704071044922,-8.401142120361328)" opacity="1" style="display: inherit;"><g><g transform="matrix(1,0,0,1,0,0)" opacity="1" style="display: block;"><path d=" M2.05,-2.85 C2.05,-2.85 3.18,-6.18 3.18,-6.18 C3.18,-6.18 4.32,-2.85 4.32,-2.85 C4.32,-2.85 2.05,-2.85 2.05,-2.85z M0.12,0 C0.12,0 1.09,0 1.09,0 C1.09,0 1.77,-1.99 1.77,-1.99 C1.77,-1.99 4.59,-1.99 4.59,-1.99 C4.59,-1.99 5.27,0 5.27,0 C5.27,0 6.24,0 6.24,0 C6.24,0 3.62,-7.43 3.62,-7.43 C3.62,-7.43 2.75,-7.43 2.75,-7.43 C2.75,-7.43 0.12,0 0.12,0z"></path><g opacity="1" transform="matrix(0.10607410222291946,0,0,0.10607410222291946,0,0)"></g></g></g></g><g stroke-linecap="butt" stroke-linejoin="round" stroke-miterlimit="4" transform="matrix(1,0,0,1,-46.56652069091797,-8.401142120361328)" opacity="1" style="display: inherit;"><g><g transform="matrix(1,0,0,1,0,0)" opacity="1" style="display: block;"><path d=" M2.97,-0.7 C2.48,-0.7 2.1,-0.88 1.82,-1.25 C1.54,-1.61 1.4,-2.09 1.4,-2.67 C1.4,-3.26 1.54,-3.74 1.82,-4.1 C2.1,-4.46 2.48,-4.65 2.97,-4.65 C3.46,-4.65 3.84,-4.46 4.12,-4.1 C4.39,-3.74 4.53,-3.26 4.53,-2.67 C4.53,-2.08 4.39,-1.6 4.12,-1.24 C3.84,-0.88 3.46,-0.7 2.97,-0.7z M2.85,0.08 C3.19,0.08 3.51,0.01 3.81,-0.15 C4.11,-0.3 4.32,-0.49 4.46,-0.7 C4.46,-0.7 4.46,0 4.46,0 C4.46,0 5.32,0 5.32,0 C5.32,0 5.32,-7.51 5.32,-7.51 C5.32,-7.51 4.46,-7.51 4.46,-7.51 C4.46,-7.51 4.46,-4.68 4.46,-4.68 C4.28,-4.91 4.05,-5.1 3.78,-5.23 C3.5,-5.36 3.19,-5.43 2.85,-5.43 C2.35,-5.43 1.92,-5.31 1.57,-5.08 C1.22,-4.84 0.95,-4.51 0.76,-4.09 C0.58,-3.68 0.49,-3.2 0.49,-2.67 C0.49,-2.14 0.58,-1.67 0.76,-1.25 C0.95,-0.83 1.22,-0.51 1.57,-0.27 C1.92,-0.03 2.35,0.08 2.85,0.08z"></path><g opacity="1" transform="matrix(0.10607410222291946,0,0,0.10607410222291946,0,0)"></g></g></g></g><g stroke-linecap="butt" stroke-linejoin="round" stroke-miterlimit="4" transform="matrix(1,0,0,1,-40.446041107177734,-8.401142120361328)" opacity="1" style="display: inherit;"><g><g transform="matrix(1,0,0,1,0,0)" opacity="1" style="display: block;"><path d=" M1.96,0 C1.96,0 2.84,0 2.84,0 C2.84,0 4.65,-5.35 4.65,-5.35 C4.65,-5.35 3.74,-5.35 3.74,-5.35 C3.74,-5.35 2.41,-1.12 2.41,-1.12 C2.41,-1.12 1.06,-5.35 1.06,-5.35 C1.06,-5.35 0.16,-5.35 0.16,-5.35 C0.16,-5.35 1.96,0 1.96,0z"></path><g opacity="1" transform="matrix(0.10607410222291946,0,0,0.10607410222291946,0,0)"></g></g></g></g><g stroke-linecap="butt" stroke-linejoin="round" stroke-miterlimit="4" transform="matrix(1,0,0,1,-35.354488372802734,-8.401142120361328)" opacity="1" style="display: inherit;"><g><g transform="matrix(1,0,0,1,0,0)" opacity="1" style="display: block;"><path d=" M2.32,-0.7 C2.04,-0.7 1.82,-0.77 1.66,-0.92 C1.5,-1.07 1.42,-1.28 1.42,-1.55 C1.42,-1.87 1.55,-2.11 1.79,-2.28 C2.04,-2.45 2.41,-2.54 2.91,-2.54 C2.91,-2.54 3.81,-2.54 3.81,-2.54 C3.81,-2.54 3.81,-2.37 3.81,-2.37 C3.81,-1.99 3.73,-1.68 3.59,-1.43 C3.44,-1.18 3.25,-0.99 3.02,-0.88 C2.8,-0.76 2.56,-0.7 2.32,-0.7z M2.16,0.08 C2.91,0.08 3.46,-0.2 3.83,-0.77 C3.83,-0.77 3.99,0 3.99,0 C3.99,0 4.68,0 4.68,0 C4.68,0 4.68,-3.43 4.68,-3.43 C4.68,-4.06 4.49,-4.56 4.13,-4.91 C3.76,-5.26 3.27,-5.43 2.67,-5.43 C2.17,-5.43 1.74,-5.3 1.37,-5.03 C1.01,-4.76 0.79,-4.4 0.72,-3.96 C0.72,-3.96 1.51,-3.78 1.51,-3.78 C1.7,-4.36 2.09,-4.65 2.67,-4.65 C3.01,-4.65 3.29,-4.56 3.5,-4.38 C3.7,-4.2 3.81,-3.91 3.81,-3.52 C3.81,-3.52 3.81,-3.29 3.81,-3.29 C3.81,-3.29 2.87,-3.29 2.87,-3.29 C2.14,-3.29 1.56,-3.14 1.14,-2.84 C0.72,-2.54 0.51,-2.1 0.51,-1.54 C0.51,-1 0.66,-0.6 0.98,-0.32 C1.29,-0.05 1.68,0.08 2.16,0.08z"></path><g opacity="1" transform="matrix(0.10607410222291946,0,0,0.10607410222291946,0,0)"></g></g></g></g><g stroke-linecap="butt" stroke-linejoin="round" stroke-miterlimit="4" transform="matrix(1,0,0,1,-29.997743606567383,-8.401142120361328)" opacity="1" style="display: inherit;"><g><g transform="matrix(1,0,0,1,0,0)" opacity="1" style="display: block;"><path d=" M0.8,0 C0.8,0 1.68,0 1.68,0 C1.68,0 1.68,-2.28 1.68,-2.28 C1.68,-2.76 1.74,-3.18 1.88,-3.54 C2.02,-3.89 2.21,-4.17 2.45,-4.36 C2.68,-4.55 2.95,-4.65 3.24,-4.65 C3.56,-4.65 3.81,-4.55 3.97,-4.36 C4.14,-4.18 4.22,-3.9 4.22,-3.53 C4.22,-3.53 4.22,0 4.22,0 C4.22,0 5.09,0 5.09,0 C5.09,0 5.09,-3.72 5.09,-3.72 C5.09,-4.27 4.94,-4.69 4.65,-4.99 C4.35,-5.28 3.95,-5.43 3.45,-5.43 C3.09,-5.43 2.75,-5.33 2.43,-5.13 C2.12,-4.93 1.87,-4.66 1.68,-4.32 C1.68,-4.32 1.68,-5.35 1.68,-5.35 C1.68,-5.35 0.8,-5.35 0.8,-5.35 C0.8,-5.35 0.8,0 0.8,0z"></path><g opacity="1" transform="matrix(0.10607410222291946,0,0,0.10607410222291946,0,0)"></g></g></g></g><g stroke-linecap="butt" stroke-linejoin="round" stroke-miterlimit="4" transform="matrix(1,0,0,1,-24.121238708496094,-8.401142120361328)" opacity="1" style="display: inherit;"><g><g transform="matrix(1,0,0,1,0,0)" opacity="1" style="display: block;"><path d=" M2.94,0.08 C3.48,0.08 3.94,-0.04 4.32,-0.29 C4.7,-0.54 4.99,-0.92 5.18,-1.41 C5.18,-1.41 4.39,-1.72 4.39,-1.72 C4.24,-1.38 4.05,-1.12 3.82,-0.95 C3.59,-0.78 3.29,-0.7 2.94,-0.7 C2.44,-0.7 2.05,-0.89 1.79,-1.26 C1.53,-1.63 1.4,-2.1 1.4,-2.67 C1.4,-3.25 1.53,-3.73 1.79,-4.09 C2.05,-4.46 2.44,-4.65 2.94,-4.65 C3.63,-4.65 4.12,-4.31 4.39,-3.63 C4.39,-3.63 5.18,-3.94 5.18,-3.94 C4.8,-4.93 4.06,-5.43 2.94,-5.43 C2.41,-5.43 1.97,-5.3 1.6,-5.05 C1.23,-4.79 0.96,-4.46 0.77,-4.04 C0.58,-3.62 0.49,-3.17 0.49,-2.67 C0.49,-2.18 0.58,-1.72 0.77,-1.3 C0.96,-0.89 1.23,-0.55 1.6,-0.3 C1.97,-0.04 2.41,0.08 2.94,0.08z"></path><g opacity="1" transform="matrix(0.10607410222291946,0,0,0.10607410222291946,0,0)"></g></g></g></g><g stroke-linecap="butt" stroke-linejoin="round" stroke-miterlimit="4" transform="matrix(1,0,0,1,-18.5417423248291,-8.401142120361328)" opacity="1" style="display: inherit;"><g><g transform="matrix(1,0,0,1,0,0)" opacity="1" style="display: block;"><path d=" M1.44,-3.29 C1.52,-3.68 1.69,-4.01 1.95,-4.26 C2.21,-4.52 2.54,-4.65 2.93,-4.65 C3.35,-4.65 3.69,-4.52 3.95,-4.28 C4.2,-4.04 4.36,-3.71 4.42,-3.29 C4.42,-3.29 1.44,-3.29 1.44,-3.29z M2.93,0.08 C3.47,0.08 3.93,-0.04 4.29,-0.28 C4.65,-0.52 4.96,-0.9 5.22,-1.42 C5.22,-1.42 4.48,-1.74 4.48,-1.74 C4.29,-1.37 4.08,-1.11 3.85,-0.94 C3.62,-0.78 3.32,-0.7 2.95,-0.7 C2.47,-0.7 2.09,-0.87 1.82,-1.21 C1.55,-1.56 1.41,-2 1.4,-2.54 C1.4,-2.54 5.31,-2.54 5.31,-2.54 C5.31,-2.54 5.31,-2.91 5.31,-2.91 C5.31,-3.37 5.22,-3.8 5.03,-4.18 C4.84,-4.56 4.56,-4.87 4.2,-5.09 C3.84,-5.32 3.42,-5.43 2.93,-5.43 C2.43,-5.43 1.99,-5.31 1.62,-5.06 C1.26,-4.81 0.97,-4.48 0.78,-4.06 C0.59,-3.64 0.49,-3.18 0.49,-2.67 C0.49,-2.17 0.59,-1.71 0.78,-1.29 C0.97,-0.87 1.26,-0.53 1.62,-0.29 C1.99,-0.04 2.43,0.08 2.93,0.08z"></path><g opacity="1" transform="matrix(0.10607410222291946,0,0,0.10607410222291946,0,0)"></g></g></g></g><g stroke-linecap="butt" stroke-linejoin="round" stroke-miterlimit="4" transform="matrix(1,0,0,1,-12.739486694335938,-8.401142120361328)" opacity="1" style="display: inherit;"><g><g transform="matrix(1,0,0,1,0,0)" opacity="1" style="display: block;"><path d=" M2.97,-0.7 C2.48,-0.7 2.1,-0.88 1.82,-1.25 C1.54,-1.61 1.4,-2.09 1.4,-2.67 C1.4,-3.26 1.54,-3.74 1.82,-4.1 C2.1,-4.46 2.48,-4.65 2.97,-4.65 C3.46,-4.65 3.84,-4.46 4.12,-4.1 C4.39,-3.74 4.53,-3.26 4.53,-2.67 C4.53,-2.08 4.39,-1.6 4.12,-1.24 C3.84,-0.88 3.46,-0.7 2.97,-0.7z M2.85,0.08 C3.19,0.08 3.51,0.01 3.81,-0.15 C4.11,-0.3 4.32,-0.49 4.46,-0.7 C4.46,-0.7 4.46,0 4.46,0 C4.46,0 5.32,0 5.32,0 C5.32,0 5.32,-7.51 5.32,-7.51 C5.32,-7.51 4.46,-7.51 4.46,-7.51 C4.46,-7.51 4.46,-4.68 4.46,-4.68 C4.28,-4.91 4.05,-5.1 3.78,-5.23 C3.5,-5.36 3.19,-5.43 2.85,-5.43 C2.35,-5.43 1.92,-5.31 1.57,-5.08 C1.22,-4.84 0.95,-4.51 0.76,-4.09 C0.58,-3.68 0.49,-3.2 0.49,-2.67 C0.49,-2.14 0.58,-1.67 0.76,-1.25 C0.95,-0.83 1.22,-0.51 1.57,-0.27 C1.92,-0.03 2.35,0.08 2.85,0.08z"></path><g opacity="1" transform="matrix(0.10607410222291946,0,0,0.10607410222291946,0,0)"></g></g></g></g></g><g clip-path="url(#__lottie_element_1024)" transform="matrix(0.9998700022697449,0,0,0.9998700022697449,255.0020751953125,55.210079193115234)" opacity="0.9995" style="display: block;"><g transform="matrix(1,0,0,1,15.91100025177002,15.91100025177002)" opacity="1" style="display: block;"><g opacity="1" transform="matrix(2,0,0,2,0,0)"></g></g><g transform="matrix(1,0,0,1,15.91100025177002,15.91100025177002)" opacity="1" style="display: block;"><g opacity="1" transform="matrix(2,0,0,2,0,0)"><path stroke-linecap="butt" stroke-linejoin="miter" fill-opacity="0" stroke-miterlimit="4" stroke="rgb(255,255,255)" stroke-opacity="1" stroke-width="1.326" d=" M0,-5.9664998054504395 C3.2929112911224365,-5.9664998054504395 5.9664998054504395,-3.2929112911224365 5.9664998054504395,0 C5.9664998054504395,3.2929112911224365 3.2929112911224365,5.9664998054504395 0,5.9664998054504395 C-3.2929112911224365,5.9664998054504395 -5.9664998054504395,3.2929112911224365 -5.9664998054504395,0 C-5.9664998054504395,-3.2929112911224365 -3.2929112911224365,-5.9664998054504395 0,-5.9664998054504395z"></path></g></g><g transform="matrix(-1,0,0,-1,15.91100025177002,15.91100025177002)" opacity="1" style="display: block;"><g opacity="1" transform="matrix(0,-2,2,0,0,0)"><path stroke-linecap="butt" stroke-linejoin="miter" fill-opacity="0" stroke-miterlimit="4" stroke="rgb(255,255,255)" stroke-opacity="1" stroke-width="1.326" d=" M-1.9889999628067017,-2.6519999504089355 C-1.9889999628067017,-2.6519999504089355 1.9889999628067017,0.6629999876022339 1.9889999628067017,0.6629999876022339 C1.9889999628067017,0.6629999876022339 0,2.6519999504089355 0,2.6519999504089355"></path></g></g></g><g clip-path="url(#__lottie_element_1037)" transform="matrix(0.9993199706077576,0,0,0.9993199706077576,495.0108947753906,55.21887969970703)" opacity="0.99926" style="display: block;"><g transform="matrix(1,0,0,1,15.91100025177002,15.91100025177002)" opacity="1" style="display: block;"><g opacity="1" transform="matrix(2,0,0,2,0,0)"></g></g><g transform="matrix(1,0,0,1,15.91100025177002,15.91100025177002)" opacity="1" style="display: block;"><g opacity="1" transform="matrix(2,0,0,2,0,0)"><path stroke-linecap="butt" stroke-linejoin="miter" fill-opacity="0" stroke-miterlimit="4" stroke="rgb(255,255,255)" stroke-opacity="1" stroke-width="1.326" d=" M0,-5.9664998054504395 C3.2929112911224365,-5.9664998054504395 5.9664998054504395,-3.2929112911224365 5.9664998054504395,0 C5.9664998054504395,3.2929112911224365 3.2929112911224365,5.9664998054504395 0,5.9664998054504395 C-3.2929112911224365,5.9664998054504395 -5.9664998054504395,3.2929112911224365 -5.9664998054504395,0 C-5.9664998054504395,-3.2929112911224365 -3.2929112911224365,-5.9664998054504395 0,-5.9664998054504395z"></path></g></g><g transform="matrix(-1,0,0,-1,15.91100025177002,15.91100025177002)" opacity="1" style="display: block;"><g opacity="1" transform="matrix(0,-2,2,0,0,0)"><path stroke-linecap="butt" stroke-linejoin="miter" fill-opacity="0" stroke-miterlimit="4" stroke="rgb(255,255,255)" stroke-opacity="1" stroke-width="1.326" d=" M-1.9889999628067017,-2.6519999504089355 C-1.9889999628067017,-2.6519999504089355 1.9889999628067017,0.6629999876022339 1.9889999628067017,0.6629999876022339 C1.9889999628067017,0.6629999876022339 0,2.6519999504089355 0,2.6519999504089355"></path></g></g></g><g clip-path="url(#__lottie_element_1050)" transform="matrix(1.0001399517059326,0,0,1.0001399517059326,15.013761520385742,55.20576095581055)" opacity="0.9990800000000001" style="display: block;"><g transform="matrix(1,0,0,1,15.91100025177002,15.91100025177002)" opacity="1" style="display: block;"><g opacity="1" transform="matrix(2,0,0,2,0,0)"></g></g><g transform="matrix(1,0,0,1,15.91100025177002,15.91100025177002)" opacity="1" style="display: block;"><g opacity="1" transform="matrix(2,0,0,2,0,0)"><path stroke-linecap="butt" stroke-linejoin="miter" fill-opacity="0" stroke-miterlimit="4" stroke="rgb(255,255,255)" stroke-opacity="1" stroke-width="1.326" d=" M0,-5.9664998054504395 C3.2929112911224365,-5.9664998054504395 5.9664998054504395,-3.2929112911224365 5.9664998054504395,0 C5.9664998054504395,3.2929112911224365 3.2929112911224365,5.9664998054504395 0,5.9664998054504395 C-3.2929112911224365,5.9664998054504395 -5.9664998054504395,3.2929112911224365 -5.9664998054504395,0 C-5.9664998054504395,-3.2929112911224365 -3.2929112911224365,-5.9664998054504395 0,-5.9664998054504395z"></path></g></g><g transform="matrix(-1,0,0,-1,15.91100025177002,15.91100025177002)" opacity="1" style="display: block;"><g opacity="1" transform="matrix(0,-2,2,0,0,0)"><path stroke-linecap="butt" stroke-linejoin="miter" fill-opacity="0" stroke-miterlimit="4" stroke="rgb(255,255,255)" stroke-opacity="1" stroke-width="1.326" d=" M-1.9889999628067017,-2.6519999504089355 C-1.9889999628067017,-2.6519999504089355 1.9889999628067017,0.6629999876022339 1.9889999628067017,0.6629999876022339 C1.9889999628067017,0.6629999876022339 0,2.6519999504089355 0,2.6519999504089355"></path></g></g></g></g></g></svg>
