<svg xmlns="http://www.w3.org/2000/svg" xmlns:xlink="http://www.w3.org/1999/xlink" viewBox="0 0 300 300" width="200" height="200" preserveAspectRatio="xMidYMid meet" style="width: 100%; height: 100%; content-visibility: visible;"><defs><clipPath id="__lottie_element_241"><rect width="300" height="300" x="0" y="0"></rect></clipPath><clipPath id="__lottie_element_243"><path d="M0,0 L391,0 L391,393 L0,393z"></path></clipPath><clipPath id="__lottie_element_247"><path d="M0,0 L320,0 L320,100 L0,100z"></path></clipPath><clipPath id="__lottie_element_251"><path d="M0,0 L320,0 L320,100 L0,100z"></path></clipPath><clipPath id="__lottie_element_255"><path d="M0,0 L320,0 L320,100 L0,100z"></path></clipPath><clipPath id="__lottie_element_259"><path d="M0,0 L962,0 L962,844 L0,844z"></path></clipPath><filter id="__lottie_element_264" x="0%" y="0%" width="100%" height="100%"><feGaussianBlur in="SourceAlpha" result="filter_result_0_drop_shadow_1" stdDeviation="7.31775"></feGaussianBlur><feOffset dx="1.2195063687050594" dy="-19.513931131801396" in="filter_result_0_drop_shadow_1" result="filter_result_0_drop_shadow_2"></feOffset><feFlood flood-color="#000000" flood-opacity="0.07" result="filter_result_0_drop_shadow_3"></feFlood><feComposite in="filter_result_0_drop_shadow_3" in2="filter_result_0_drop_shadow_2" operator="in" result="filter_result_0_drop_shadow_4"></feComposite><feMerge result="filter_result_0"><feMergeNode in="filter_result_0_drop_shadow_4"></feMergeNode><feMergeNode in="SourceGraphic"></feMergeNode></feMerge></filter><filter id="__lottie_element_291" x="0%" y="0%" width="100%" height="100%"><feGaussianBlur in="SourceAlpha" result="filter_result_0_drop_shadow_1" stdDeviation="7.31775"></feGaussianBlur><feOffset dx="1.2195063687050594" dy="-19.513931131801396" in="filter_result_0_drop_shadow_1" result="filter_result_0_drop_shadow_2"></feOffset><feFlood flood-color="#000000" flood-opacity="0.07" result="filter_result_0_drop_shadow_3"></feFlood><feComposite in="filter_result_0_drop_shadow_3" in2="filter_result_0_drop_shadow_2" operator="in" result="filter_result_0_drop_shadow_4"></feComposite><feMerge result="filter_result_0"><feMergeNode in="filter_result_0_drop_shadow_4"></feMergeNode><feMergeNode in="SourceGraphic"></feMergeNode></feMerge></filter><filter id="__lottie_element_318" x="0%" y="0%" width="100%" height="100%"><feGaussianBlur in="SourceAlpha" result="filter_result_0_drop_shadow_1" stdDeviation="7.31775"></feGaussianBlur><feOffset dx="1.2195063687050594" dy="-19.513931131801396" in="filter_result_0_drop_shadow_1" result="filter_result_0_drop_shadow_2"></feOffset><feFlood flood-color="#000000" flood-opacity="0.07" result="filter_result_0_drop_shadow_3"></feFlood><feComposite in="filter_result_0_drop_shadow_3" in2="filter_result_0_drop_shadow_2" operator="in" result="filter_result_0_drop_shadow_4"></feComposite><feMerge result="filter_result_0"><feMergeNode in="filter_result_0_drop_shadow_4"></feMergeNode><feMergeNode in="SourceGraphic"></feMergeNode></feMerge></filter></defs><g clip-path="url(#__lottie_element_241)"><g clip-path="url(#__lottie_element_243)" style="display: block;" transform="matrix(0.7300000190734863,0,0,0.7300000190734863,7.285675048828125,6.5551300048828125)" opacity="1"><g clip-path="url(#__lottie_element_247)" style="display: block;" transform="matrix(1,0,0,1,35.548004150390625,147.74600219726562)" opacity="0.62"><g filter="url(#__lottie_element_264)" style="display: block;" transform="matrix(1,0,0,1,158.98399353027344,49.82500076293945)" opacity="1"><g opacity="1" transform="matrix(2,0,0,2,0,0)"><path fill="rgb(34,34,34)" fill-opacity="1" d=" M78.05549621582031,-18.172500610351562 C78.05549621582031,-18.172500610351562 78.05549621582031,18.172500610351562 78.05549621582031,18.172500610351562 C78.05549621582031,20.9320011138916 75.81499481201172,23.172500610351562 73.05549621582031,23.172500610351562 C73.05549621582031,23.172500610351562 -73.05549621582031,23.172500610351562 -73.05549621582031,23.172500610351562 C-75.81499481201172,23.172500610351562 -78.05549621582031,20.9320011138916 -78.05549621582031,18.172500610351562 C-78.05549621582031,18.172500610351562 -78.05549621582031,-18.172500610351562 -78.05549621582031,-18.172500610351562 C-78.05549621582031,-20.9320011138916 -75.81499481201172,-23.172500610351562 -73.05549621582031,-23.172500610351562 C-73.05549621582031,-23.172500610351562 73.05549621582031,-23.172500610351562 73.05549621582031,-23.172500610351562 C75.81499481201172,-23.172500610351562 78.05549621582031,-20.9320011138916 78.05549621582031,-18.172500610351562z"></path><path stroke-linecap="butt" stroke-linejoin="miter" fill-opacity="0" stroke-miterlimit="4" stroke="rgb(255,255,255)" stroke-opacity="1" stroke-width="0.858" d=" M78.05549621582031,-18.172500610351562 C78.05549621582031,-18.172500610351562 78.05549621582031,18.172500610351562 78.05549621582031,18.172500610351562 C78.05549621582031,20.9320011138916 75.81499481201172,23.172500610351562 73.05549621582031,23.172500610351562 C73.05549621582031,23.172500610351562 -73.05549621582031,23.172500610351562 -73.05549621582031,23.172500610351562 C-75.81499481201172,23.172500610351562 -78.05549621582031,20.9320011138916 -78.05549621582031,18.172500610351562 C-78.05549621582031,18.172500610351562 -78.05549621582031,-18.172500610351562 -78.05549621582031,-18.172500610351562 C-78.05549621582031,-20.9320011138916 -75.81499481201172,-23.172500610351562 -73.05549621582031,-23.172500610351562 C-73.05549621582031,-23.172500610351562 73.05549621582031,-23.172500610351562 73.05549621582031,-23.172500610351562 C75.81499481201172,-23.172500610351562 78.05549621582031,-20.9320011138916 78.05549621582031,-18.172500610351562z"></path></g></g><g fill="rgb(255,255,255)" font-size="11.7266597747803" font-family="Apercu Pro" font-style="normal" font-weight="700" aria-label="English" style="display: block;" transform="matrix(2,0,0,2,155.3040008544922,58.159000396728516)" opacity="1"><g stroke-linecap="butt" stroke-linejoin="round" stroke-miterlimit="4" style="display: inherit;" transform="matrix(1,0,0,1,-19.5,-0.6976122260093689)" opacity="1"><g><g transform="matrix(1,0,0,1,0,0)" opacity="1" style="display: block;"><path d=" M0.94,0 C0.94,0 6.13,0 6.13,0 C6.13,0 6.13,-1.41 6.13,-1.41 C6.13,-1.41 2.46,-1.41 2.46,-1.41 C2.46,-1.41 2.46,-3.67 2.46,-3.67 C2.46,-3.67 5.31,-3.67 5.31,-3.67 C5.31,-3.67 5.31,-5.08 5.31,-5.08 C5.31,-5.08 2.46,-5.08 2.46,-5.08 C2.46,-5.08 2.46,-6.8 2.46,-6.8 C2.46,-6.8 6.02,-6.8 6.02,-6.8 C6.02,-6.8 6.02,-8.21 6.02,-8.21 C6.02,-8.21 0.94,-8.21 0.94,-8.21 C0.94,-8.21 0.94,0 0.94,0z"></path><g opacity="1" transform="matrix(0.11726659536361694,0,0,0.11726659536361694,0,0)"></g></g></g></g><g stroke-linecap="butt" stroke-linejoin="round" stroke-miterlimit="4" style="display: inherit;" transform="matrix(1,0,0,1,-12.710264205932617,-0.6976122260093689)" opacity="1"><g><g transform="matrix(1,0,0,1,0,0)" opacity="1" style="display: block;"><path d=" M0.82,0 C0.82,0 2.27,0 2.27,0 C2.27,0 2.27,-2.36 2.27,-2.36 C2.27,-2.86 2.34,-3.29 2.46,-3.65 C2.59,-4.02 2.75,-4.29 2.96,-4.48 C3.16,-4.67 3.38,-4.76 3.62,-4.76 C3.88,-4.76 4.09,-4.68 4.24,-4.53 C4.39,-4.37 4.47,-4.12 4.47,-3.79 C4.47,-3.79 4.47,0 4.47,0 C4.47,0 5.92,0 5.92,0 C5.92,0 5.92,-4.22 5.92,-4.22 C5.92,-4.8 5.76,-5.24 5.42,-5.55 C5.09,-5.85 4.65,-6 4.1,-6 C3.74,-6 3.4,-5.91 3.08,-5.72 C2.77,-5.53 2.5,-5.28 2.27,-4.96 C2.27,-4.96 2.27,-5.91 2.27,-5.91 C2.27,-5.91 0.82,-5.91 0.82,-5.91 C0.82,-5.91 0.82,0 0.82,0z"></path><g opacity="1" transform="matrix(0.11726659536361694,0,0,0.11726659536361694,0,0)"></g></g></g></g><g stroke-linecap="butt" stroke-linejoin="round" stroke-miterlimit="4" style="display: inherit;" transform="matrix(1,0,0,1,-5.8970746994018555,-0.6976122260093689)" opacity="1"><g><g transform="matrix(1,0,0,1,0,0)" opacity="1" style="display: block;"><path d=" M3.04,1.27 C2.64,1.27 2.32,1.19 2.08,1.05 C1.83,0.9 1.71,0.7 1.71,0.42 C1.71,0.2 1.76,0.02 1.84,-0.12 C2.03,-0.09 2.26,-0.07 2.52,-0.07 C2.52,-0.07 3.32,-0.07 3.32,-0.07 C3.62,-0.07 3.86,-0.03 4.02,0.06 C4.19,0.15 4.27,0.31 4.27,0.54 C4.27,0.79 4.16,0.97 3.93,1.09 C3.71,1.21 3.41,1.27 3.04,1.27z M3.03,-3.21 C2.79,-3.21 2.6,-3.29 2.45,-3.44 C2.29,-3.58 2.22,-3.78 2.22,-4.01 C2.22,-4.25 2.29,-4.45 2.45,-4.6 C2.6,-4.76 2.79,-4.83 3.03,-4.83 C3.26,-4.83 3.45,-4.76 3.61,-4.6 C3.76,-4.45 3.83,-4.25 3.83,-4.01 C3.83,-3.78 3.76,-3.58 3.61,-3.44 C3.45,-3.29 3.26,-3.21 3.03,-3.21z M3.04,2.49 C3.51,2.49 3.94,2.41 4.35,2.27 C4.76,2.12 5.09,1.9 5.34,1.59 C5.6,1.29 5.72,0.91 5.72,0.45 C5.72,-0.11 5.53,-0.54 5.16,-0.84 C4.78,-1.14 4.28,-1.29 3.65,-1.29 C3.65,-1.29 2.44,-1.29 2.44,-1.29 C2.26,-1.29 2.12,-1.33 2.03,-1.4 C1.93,-1.48 1.89,-1.58 1.89,-1.72 C1.89,-1.91 1.98,-2.06 2.17,-2.17 C2.44,-2.08 2.73,-2.04 3.03,-2.04 C3.42,-2.04 3.79,-2.12 4.12,-2.27 C4.45,-2.43 4.72,-2.66 4.91,-2.96 C5.1,-3.26 5.19,-3.61 5.19,-4.01 C5.19,-4.36 5.12,-4.67 4.96,-4.95 C4.96,-4.95 5.8,-5.37 5.8,-5.37 C5.8,-5.37 5.23,-6.33 5.23,-6.33 C5.23,-6.33 4.12,-5.75 4.12,-5.75 C3.77,-5.92 3.41,-6 3.03,-6 C2.63,-6 2.26,-5.92 1.93,-5.76 C1.6,-5.59 1.33,-5.36 1.14,-5.06 C0.95,-4.76 0.86,-4.41 0.86,-4.01 C0.86,-3.53 0.99,-3.13 1.27,-2.79 C1.04,-2.66 0.86,-2.49 0.73,-2.27 C0.6,-2.06 0.54,-1.82 0.54,-1.55 C0.54,-1.18 0.64,-0.88 0.84,-0.63 C0.52,-0.34 0.36,0.05 0.36,0.54 C0.36,1.16 0.61,1.65 1.11,1.98 C1.6,2.32 2.25,2.49 3.04,2.49z"></path><g opacity="1" transform="matrix(0.11726659536361694,0,0,0.11726659536361694,0,0)"></g></g></g></g><g stroke-linecap="butt" stroke-linejoin="round" stroke-miterlimit="4" style="display: inherit;" transform="matrix(1,0,0,1,0.1890609860420227,-0.6976122260093689)" opacity="1"><g><g transform="matrix(1,0,0,1,0,0)" opacity="1" style="display: block;"><path d=" M0.82,0 C0.82,0 2.27,0 2.27,0 C2.27,0 2.27,-8.3 2.27,-8.3 C2.27,-8.3 0.82,-8.3 0.82,-8.3 C0.82,-8.3 0.82,0 0.82,0z"></path><g opacity="1" transform="matrix(0.11726659536361694,0,0,0.11726659536361694,0,0)"></g></g></g></g><g stroke-linecap="butt" stroke-linejoin="round" stroke-miterlimit="4" style="display: inherit;" transform="matrix(1,0,0,1,3.4021670818328857,-0.6976122260093689)" opacity="1"><g><g transform="matrix(1,0,0,1,0,0)" opacity="1" style="display: block;"><path d=" M0.82,0 C0.82,0 2.27,0 2.27,0 C2.27,0 2.27,-5.91 2.27,-5.91 C2.27,-5.91 0.82,-5.91 0.82,-5.91 C0.82,-5.91 0.82,0 0.82,0z M1.55,-6.67 C1.81,-6.67 2.04,-6.76 2.22,-6.94 C2.4,-7.12 2.49,-7.34 2.49,-7.61 C2.49,-7.88 2.4,-8.1 2.22,-8.28 C2.04,-8.46 1.81,-8.55 1.55,-8.55 C1.28,-8.55 1.06,-8.46 0.88,-8.28 C0.7,-8.1 0.61,-7.88 0.61,-7.61 C0.61,-7.34 0.7,-7.12 0.88,-6.94 C1.06,-6.76 1.28,-6.67 1.55,-6.67z"></path><g opacity="1" transform="matrix(0.11726659536361694,0,0,0.11726659536361694,0,0)"></g></g></g></g><g stroke-linecap="butt" stroke-linejoin="round" stroke-miterlimit="4" style="display: inherit;" transform="matrix(1,0,0,1,6.615270614624023,-0.6976122260093689)" opacity="1"><g><g transform="matrix(1,0,0,1,0,0)" opacity="1" style="display: block;"><path d=" M2.74,0.09 C3.34,0.09 3.82,-0.08 4.19,-0.43 C4.55,-0.78 4.74,-1.24 4.74,-1.82 C4.74,-2.23 4.61,-2.57 4.37,-2.84 C4.12,-3.1 3.77,-3.32 3.32,-3.48 C2.84,-3.65 2.52,-3.8 2.36,-3.92 C2.19,-4.04 2.11,-4.17 2.11,-4.32 C2.11,-4.45 2.17,-4.56 2.28,-4.64 C2.39,-4.72 2.53,-4.76 2.69,-4.76 C3.08,-4.76 3.4,-4.59 3.64,-4.25 C3.64,-4.25 4.5,-5.04 4.5,-5.04 C4.32,-5.35 4.07,-5.58 3.74,-5.75 C3.41,-5.92 3.05,-6 2.65,-6 C2.29,-6 1.97,-5.93 1.68,-5.78 C1.4,-5.63 1.17,-5.43 1.01,-5.18 C0.84,-4.93 0.76,-4.66 0.76,-4.35 C0.76,-3.92 0.89,-3.57 1.14,-3.3 C1.39,-3.02 1.74,-2.79 2.19,-2.62 C2.3,-2.57 2.38,-2.54 2.44,-2.52 C2.79,-2.4 3.05,-2.28 3.22,-2.16 C3.39,-2.05 3.47,-1.9 3.47,-1.72 C3.47,-1.52 3.4,-1.37 3.26,-1.28 C3.12,-1.19 2.94,-1.15 2.73,-1.15 C2.46,-1.15 2.22,-1.24 2.02,-1.41 C1.82,-1.58 1.67,-1.82 1.56,-2.12 C1.56,-2.12 0.4,-1.5 0.4,-1.5 C0.53,-1.06 0.8,-0.69 1.21,-0.38 C1.62,-0.06 2.13,0.09 2.74,0.09z"></path><g opacity="1" transform="matrix(0.11726659536361694,0,0,0.11726659536361694,0,0)"></g></g></g></g><g stroke-linecap="butt" stroke-linejoin="round" stroke-miterlimit="4" style="display: inherit;" transform="matrix(1,0,0,1,11.84536075592041,-0.6976122260093689)" opacity="1"><g><g transform="matrix(1,0,0,1,0,0)" opacity="1" style="display: block;"><path d=" M0.82,0 C0.82,0 2.27,0 2.27,0 C2.27,0 2.27,-2.5 2.27,-2.5 C2.27,-3.01 2.34,-3.43 2.47,-3.76 C2.61,-4.1 2.78,-4.35 2.99,-4.51 C3.2,-4.68 3.42,-4.76 3.66,-4.76 C3.96,-4.76 4.18,-4.67 4.32,-4.5 C4.47,-4.33 4.54,-4.07 4.54,-3.71 C4.54,-3.71 4.54,0 4.54,0 C4.54,0 5.99,0 5.99,0 C5.99,0 5.99,-4.22 5.99,-4.22 C5.99,-4.81 5.83,-5.25 5.5,-5.55 C5.17,-5.85 4.72,-6 4.15,-6 C3.74,-6 3.38,-5.91 3.05,-5.72 C2.73,-5.53 2.47,-5.27 2.27,-4.96 C2.27,-4.96 2.27,-8.3 2.27,-8.3 C2.27,-8.3 0.82,-8.3 0.82,-8.3 C0.82,-8.3 0.82,0 0.82,0z"></path><g opacity="1" transform="matrix(0.11726659536361694,0,0,0.11726659536361694,0,0)"></g></g></g></g></g></g><g clip-path="url(#__lottie_element_251)" style="display: block;" transform="matrix(1,0,0,1,35.548004150390625,251.74600219726562)" opacity="0.62"><g filter="url(#__lottie_element_291)" style="display: block;" transform="matrix(1,0,0,1,158.98399353027344,49.82500076293945)" opacity="1"><g opacity="1" transform="matrix(2,0,0,2,0,0)"><path fill="rgb(34,34,34)" fill-opacity="1" d=" M78.05549621582031,-18.172500610351562 C78.05549621582031,-18.172500610351562 78.05549621582031,18.172500610351562 78.05549621582031,18.172500610351562 C78.05549621582031,20.9320011138916 75.81499481201172,23.172500610351562 73.05549621582031,23.172500610351562 C73.05549621582031,23.172500610351562 -73.05549621582031,23.172500610351562 -73.05549621582031,23.172500610351562 C-75.81499481201172,23.172500610351562 -78.05549621582031,20.9320011138916 -78.05549621582031,18.172500610351562 C-78.05549621582031,18.172500610351562 -78.05549621582031,-18.172500610351562 -78.05549621582031,-18.172500610351562 C-78.05549621582031,-20.9320011138916 -75.81499481201172,-23.172500610351562 -73.05549621582031,-23.172500610351562 C-73.05549621582031,-23.172500610351562 73.05549621582031,-23.172500610351562 73.05549621582031,-23.172500610351562 C75.81499481201172,-23.172500610351562 78.05549621582031,-20.9320011138916 78.05549621582031,-18.172500610351562z"></path><path stroke-linecap="butt" stroke-linejoin="miter" fill-opacity="0" stroke-miterlimit="4" stroke="rgb(255,255,255)" stroke-opacity="1" stroke-width="0.858" d=" M78.05549621582031,-18.172500610351562 C78.05549621582031,-18.172500610351562 78.05549621582031,18.172500610351562 78.05549621582031,18.172500610351562 C78.05549621582031,20.9320011138916 75.81499481201172,23.172500610351562 73.05549621582031,23.172500610351562 C73.05549621582031,23.172500610351562 -73.05549621582031,23.172500610351562 -73.05549621582031,23.172500610351562 C-75.81499481201172,23.172500610351562 -78.05549621582031,20.9320011138916 -78.05549621582031,18.172500610351562 C-78.05549621582031,18.172500610351562 -78.05549621582031,-18.172500610351562 -78.05549621582031,-18.172500610351562 C-78.05549621582031,-20.9320011138916 -75.81499481201172,-23.172500610351562 -73.05549621582031,-23.172500610351562 C-73.05549621582031,-23.172500610351562 73.05549621582031,-23.172500610351562 73.05549621582031,-23.172500610351562 C75.81499481201172,-23.172500610351562 78.05549621582031,-20.9320011138916 78.05549621582031,-18.172500610351562z"></path></g></g><g fill="rgb(255,255,255)" font-size="11.7266597747803" font-family="Apercu Pro" font-style="normal" font-weight="700" aria-label="Spanish" style="display: block;" transform="matrix(2,0,0,2,157.88600158691406,58.159000396728516)" opacity="1"><g stroke-linecap="butt" stroke-linejoin="round" stroke-miterlimit="4" style="display: inherit;" transform="matrix(1,0,0,1,-19.5,-0.6976122260093689)" opacity="1"><g><g transform="matrix(1,0,0,1,0,0)" opacity="1" style="display: block;"><path d=" M3.2,0.09 C3.71,0.09 4.16,-0.01 4.56,-0.21 C4.96,-0.4 5.27,-0.69 5.49,-1.06 C5.72,-1.43 5.83,-1.86 5.83,-2.36 C5.83,-2.79 5.74,-3.15 5.58,-3.45 C5.41,-3.75 5.19,-4 4.93,-4.19 C4.67,-4.37 4.35,-4.56 3.96,-4.74 C3.57,-4.92 3.27,-5.06 3.07,-5.18 C2.86,-5.29 2.68,-5.43 2.54,-5.59 C2.39,-5.75 2.32,-5.93 2.32,-6.14 C2.32,-6.36 2.4,-6.53 2.57,-6.68 C2.73,-6.82 2.93,-6.9 3.15,-6.9 C3.68,-6.9 4.04,-6.61 4.25,-6.03 C4.25,-6.03 5.48,-6.81 5.48,-6.81 C5.06,-7.81 4.29,-8.3 3.15,-8.3 C2.71,-8.3 2.31,-8.21 1.96,-8.02 C1.62,-7.82 1.35,-7.56 1.16,-7.22 C0.96,-6.89 0.87,-6.51 0.87,-6.1 C0.87,-5.54 1.01,-5.09 1.29,-4.73 C1.57,-4.38 1.95,-4.08 2.42,-3.85 C2.42,-3.85 2.76,-3.68 2.76,-3.68 C3.12,-3.5 3.41,-3.35 3.61,-3.24 C3.81,-3.12 3.97,-2.98 4.1,-2.83 C4.24,-2.67 4.3,-2.49 4.3,-2.29 C4.3,-1.96 4.21,-1.71 4.01,-1.55 C3.82,-1.39 3.56,-1.31 3.24,-1.31 C2.81,-1.31 2.47,-1.47 2.2,-1.77 C1.93,-2.08 1.73,-2.48 1.61,-2.98 C1.61,-2.98 0.38,-2.2 0.38,-2.2 C0.46,-1.78 0.64,-1.4 0.9,-1.04 C1.16,-0.69 1.49,-0.41 1.88,-0.21 C2.28,-0.01 2.72,0.09 3.2,0.09z"></path><g opacity="1" transform="matrix(0.11726659536361694,0,0,0.11726659536361694,0,0)"></g></g></g></g><g stroke-linecap="butt" stroke-linejoin="round" stroke-miterlimit="4" style="display: inherit;" transform="matrix(1,0,0,1,-13.155878067016602,-0.6976122260093689)" opacity="1"><g><g transform="matrix(1,0,0,1,0,0)" opacity="1" style="display: block;"><path d=" M3.51,-1.15 C3.11,-1.15 2.78,-1.31 2.53,-1.62 C2.27,-1.94 2.15,-2.38 2.15,-2.96 C2.15,-3.53 2.27,-3.97 2.53,-4.29 C2.78,-4.6 3.11,-4.76 3.51,-4.76 C3.9,-4.76 4.23,-4.6 4.49,-4.29 C4.75,-3.97 4.88,-3.53 4.88,-2.96 C4.88,-2.39 4.75,-1.95 4.49,-1.63 C4.23,-1.31 3.9,-1.15 3.51,-1.15z M0.82,2.39 C0.82,2.39 2.27,2.39 2.27,2.39 C2.27,2.39 2.27,-0.54 2.27,-0.54 C2.41,-0.37 2.61,-0.22 2.87,-0.09 C3.14,0.03 3.42,0.09 3.71,0.09 C4.57,0.09 5.24,-0.18 5.71,-0.73 C6.17,-1.28 6.4,-2.02 6.4,-2.96 C6.4,-3.89 6.17,-4.63 5.71,-5.18 C5.24,-5.73 4.57,-6 3.71,-6 C3.37,-6 3.07,-5.93 2.81,-5.78 C2.55,-5.63 2.37,-5.47 2.27,-5.3 C2.27,-5.3 2.27,-5.91 2.27,-5.91 C2.27,-5.91 0.82,-5.91 0.82,-5.91 C0.82,-5.91 0.82,2.39 0.82,2.39z"></path><g opacity="1" transform="matrix(0.11726659536361694,0,0,0.11726659536361694,0,0)"></g></g></g></g><g stroke-linecap="butt" stroke-linejoin="round" stroke-miterlimit="4" style="display: inherit;" transform="matrix(1,0,0,1,-6.143334865570068,-0.6976122260093689)" opacity="1"><g><g transform="matrix(1,0,0,1,0,0)" opacity="1" style="display: block;"><path d=" M2.7,-1.15 C2.5,-1.15 2.34,-1.2 2.22,-1.31 C2.1,-1.41 2.04,-1.55 2.04,-1.72 C2.04,-1.98 2.13,-2.17 2.3,-2.3 C2.48,-2.42 2.73,-2.49 3.05,-2.49 C3.05,-2.49 4.02,-2.49 4.02,-2.49 C4.02,-2.49 4.02,-2.37 4.02,-2.37 C4.02,-2 3.89,-1.71 3.62,-1.48 C3.36,-1.26 3.05,-1.15 2.7,-1.15z M2.31,0.09 C3.06,0.09 3.67,-0.19 4.13,-0.75 C4.13,-0.75 4.28,0 4.28,0 C4.28,0 5.48,0 5.48,0 C5.48,0 5.48,-3.53 5.48,-3.53 C5.48,-4.34 5.26,-4.96 4.83,-5.38 C4.39,-5.79 3.78,-6 2.99,-6 C2.4,-6 1.91,-5.85 1.5,-5.55 C1.08,-5.25 0.83,-4.85 0.74,-4.36 C0.74,-4.36 1.97,-4.08 1.97,-4.08 C2.14,-4.53 2.48,-4.76 2.99,-4.76 C3.29,-4.76 3.53,-4.69 3.73,-4.54 C3.92,-4.4 4.02,-4.18 4.02,-3.89 C4.02,-3.89 4.02,-3.64 4.02,-3.64 C4.02,-3.64 2.99,-3.64 2.99,-3.64 C2.23,-3.64 1.63,-3.46 1.18,-3.11 C0.74,-2.76 0.52,-2.29 0.52,-1.7 C0.52,-1.13 0.68,-0.69 1.02,-0.38 C1.36,-0.06 1.79,0.09 2.31,0.09z"></path><g opacity="1" transform="matrix(0.11726659536361694,0,0,0.11726659536361694,0,0)"></g></g></g></g><g stroke-linecap="butt" stroke-linejoin="round" stroke-miterlimit="4" style="display: inherit;" transform="matrix(1,0,0,1,0.1538810133934021,-0.6976122260093689)" opacity="1"><g><g transform="matrix(1,0,0,1,0,0)" opacity="1" style="display: block;"><path d=" M0.82,0 C0.82,0 2.27,0 2.27,0 C2.27,0 2.27,-2.36 2.27,-2.36 C2.27,-2.86 2.34,-3.29 2.46,-3.65 C2.59,-4.02 2.75,-4.29 2.96,-4.48 C3.16,-4.67 3.38,-4.76 3.62,-4.76 C3.88,-4.76 4.09,-4.68 4.24,-4.53 C4.39,-4.37 4.47,-4.12 4.47,-3.79 C4.47,-3.79 4.47,0 4.47,0 C4.47,0 5.92,0 5.92,0 C5.92,0 5.92,-4.22 5.92,-4.22 C5.92,-4.8 5.76,-5.24 5.42,-5.55 C5.09,-5.85 4.65,-6 4.1,-6 C3.74,-6 3.4,-5.91 3.08,-5.72 C2.77,-5.53 2.5,-5.28 2.27,-4.96 C2.27,-4.96 2.27,-5.91 2.27,-5.91 C2.27,-5.91 0.82,-5.91 0.82,-5.91 C0.82,-5.91 0.82,0 0.82,0z"></path><g opacity="1" transform="matrix(0.11726659536361694,0,0,0.11726659536361694,0,0)"></g></g></g></g><g stroke-linecap="butt" stroke-linejoin="round" stroke-miterlimit="4" style="display: inherit;" transform="matrix(1,0,0,1,6.967070579528809,-0.6976122260093689)" opacity="1"><g><g transform="matrix(1,0,0,1,0,0)" opacity="1" style="display: block;"><path d=" M0.82,0 C0.82,0 2.27,0 2.27,0 C2.27,0 2.27,-5.91 2.27,-5.91 C2.27,-5.91 0.82,-5.91 0.82,-5.91 C0.82,-5.91 0.82,0 0.82,0z M1.55,-6.67 C1.81,-6.67 2.04,-6.76 2.22,-6.94 C2.4,-7.12 2.49,-7.34 2.49,-7.61 C2.49,-7.88 2.4,-8.1 2.22,-8.28 C2.04,-8.46 1.81,-8.55 1.55,-8.55 C1.28,-8.55 1.06,-8.46 0.88,-8.28 C0.7,-8.1 0.61,-7.88 0.61,-7.61 C0.61,-7.34 0.7,-7.12 0.88,-6.94 C1.06,-6.76 1.28,-6.67 1.55,-6.67z"></path><g opacity="1" transform="matrix(0.11726659536361694,0,0,0.11726659536361694,0,0)"></g></g></g></g><g stroke-linecap="butt" stroke-linejoin="round" stroke-miterlimit="4" style="display: inherit;" transform="matrix(1,0,0,1,10.18017578125,-0.6976122260093689)" opacity="1"><g><g transform="matrix(1,0,0,1,0,0)" opacity="1" style="display: block;"><path d=" M2.74,0.09 C3.34,0.09 3.82,-0.08 4.19,-0.43 C4.55,-0.78 4.74,-1.24 4.74,-1.82 C4.74,-2.23 4.61,-2.57 4.37,-2.84 C4.12,-3.1 3.77,-3.32 3.32,-3.48 C2.84,-3.65 2.52,-3.8 2.36,-3.92 C2.19,-4.04 2.11,-4.17 2.11,-4.32 C2.11,-4.45 2.17,-4.56 2.28,-4.64 C2.39,-4.72 2.53,-4.76 2.69,-4.76 C3.08,-4.76 3.4,-4.59 3.64,-4.25 C3.64,-4.25 4.5,-5.04 4.5,-5.04 C4.32,-5.35 4.07,-5.58 3.74,-5.75 C3.41,-5.92 3.05,-6 2.65,-6 C2.29,-6 1.97,-5.93 1.68,-5.78 C1.4,-5.63 1.17,-5.43 1.01,-5.18 C0.84,-4.93 0.76,-4.66 0.76,-4.35 C0.76,-3.92 0.89,-3.57 1.14,-3.3 C1.39,-3.02 1.74,-2.79 2.19,-2.62 C2.3,-2.57 2.38,-2.54 2.44,-2.52 C2.79,-2.4 3.05,-2.28 3.22,-2.16 C3.39,-2.05 3.47,-1.9 3.47,-1.72 C3.47,-1.52 3.4,-1.37 3.26,-1.28 C3.12,-1.19 2.94,-1.15 2.73,-1.15 C2.46,-1.15 2.22,-1.24 2.02,-1.41 C1.82,-1.58 1.67,-1.82 1.56,-2.12 C1.56,-2.12 0.4,-1.5 0.4,-1.5 C0.53,-1.06 0.8,-0.69 1.21,-0.38 C1.62,-0.06 2.13,0.09 2.74,0.09z"></path><g opacity="1" transform="matrix(0.11726659536361694,0,0,0.11726659536361694,0,0)"></g></g></g></g><g stroke-linecap="butt" stroke-linejoin="round" stroke-miterlimit="4" style="display: inherit;" transform="matrix(1,0,0,1,15.410265922546387,-0.6976122260093689)" opacity="1"><g><g transform="matrix(1,0,0,1,0,0)" opacity="1" style="display: block;"><path d=" M0.82,0 C0.82,0 2.27,0 2.27,0 C2.27,0 2.27,-2.5 2.27,-2.5 C2.27,-3.01 2.34,-3.43 2.47,-3.76 C2.61,-4.1 2.78,-4.35 2.99,-4.51 C3.2,-4.68 3.42,-4.76 3.66,-4.76 C3.96,-4.76 4.18,-4.67 4.32,-4.5 C4.47,-4.33 4.54,-4.07 4.54,-3.71 C4.54,-3.71 4.54,0 4.54,0 C4.54,0 5.99,0 5.99,0 C5.99,0 5.99,-4.22 5.99,-4.22 C5.99,-4.81 5.83,-5.25 5.5,-5.55 C5.17,-5.85 4.72,-6 4.15,-6 C3.74,-6 3.38,-5.91 3.05,-5.72 C2.73,-5.53 2.47,-5.27 2.27,-4.96 C2.27,-4.96 2.27,-8.3 2.27,-8.3 C2.27,-8.3 0.82,-8.3 0.82,-8.3 C0.82,-8.3 0.82,0 0.82,0z"></path><g opacity="1" transform="matrix(0.11726659536361694,0,0,0.11726659536361694,0,0)"></g></g></g></g></g></g><g clip-path="url(#__lottie_element_255)" style="display: block;" transform="matrix(0.9997599720954895,0,0,0.9997599720954895,35.58641052246094,43.75800323486328)" opacity="0.62"><g filter="url(#__lottie_element_318)" style="display: block;" transform="matrix(1,0,0,1,158.98399353027344,49.82500076293945)" opacity="1"><g opacity="1" transform="matrix(2,0,0,2,0,0)"><path fill="rgb(34,34,34)" fill-opacity="1" d=" M78.05549621582031,-18.172500610351562 C78.05549621582031,-18.172500610351562 78.05549621582031,18.172500610351562 78.05549621582031,18.172500610351562 C78.05549621582031,20.9320011138916 75.81499481201172,23.172500610351562 73.05549621582031,23.172500610351562 C73.05549621582031,23.172500610351562 -73.05549621582031,23.172500610351562 -73.05549621582031,23.172500610351562 C-75.81499481201172,23.172500610351562 -78.05549621582031,20.9320011138916 -78.05549621582031,18.172500610351562 C-78.05549621582031,18.172500610351562 -78.05549621582031,-18.172500610351562 -78.05549621582031,-18.172500610351562 C-78.05549621582031,-20.9320011138916 -75.81499481201172,-23.172500610351562 -73.05549621582031,-23.172500610351562 C-73.05549621582031,-23.172500610351562 73.05549621582031,-23.172500610351562 73.05549621582031,-23.172500610351562 C75.81499481201172,-23.172500610351562 78.05549621582031,-20.9320011138916 78.05549621582031,-18.172500610351562z"></path><path stroke-linecap="butt" stroke-linejoin="miter" fill-opacity="0" stroke-miterlimit="4" stroke="rgb(255,255,255)" stroke-opacity="1" stroke-width="0.858" d=" M78.05549621582031,-18.172500610351562 C78.05549621582031,-18.172500610351562 78.05549621582031,18.172500610351562 78.05549621582031,18.172500610351562 C78.05549621582031,20.9320011138916 75.81499481201172,23.172500610351562 73.05549621582031,23.172500610351562 C73.05549621582031,23.172500610351562 -73.05549621582031,23.172500610351562 -73.05549621582031,23.172500610351562 C-75.81499481201172,23.172500610351562 -78.05549621582031,20.9320011138916 -78.05549621582031,18.172500610351562 C-78.05549621582031,18.172500610351562 -78.05549621582031,-18.172500610351562 -78.05549621582031,-18.172500610351562 C-78.05549621582031,-20.9320011138916 -75.81499481201172,-23.172500610351562 -73.05549621582031,-23.172500610351562 C-73.05549621582031,-23.172500610351562 73.05549621582031,-23.172500610351562 73.05549621582031,-23.172500610351562 C75.81499481201172,-23.172500610351562 78.05549621582031,-20.9320011138916 78.05549621582031,-18.172500610351562z"></path></g></g><g fill="rgb(255,255,255)" font-size="11.7266597747803" font-family="Apercu Pro" font-style="normal" font-weight="400" aria-label="Portuguese" style="display: block;" transform="matrix(2,0,0,2,156.12399291992188,58.159000396728516)" opacity="1"><g stroke-linecap="butt" stroke-linejoin="round" stroke-miterlimit="4" style="display: inherit;" transform="matrix(1,0,0,1,-28,-0.6976122260093689)" opacity="1"><g><g transform="matrix(1,0,0,1,0,0)" opacity="1" style="display: block;"><path d=" M2.04,-4.48 C2.04,-4.48 2.04,-7.26 2.04,-7.26 C2.04,-7.26 3.89,-7.26 3.89,-7.26 C4.37,-7.26 4.72,-7.14 4.95,-6.89 C5.18,-6.64 5.29,-6.3 5.29,-5.88 C5.29,-5.44 5.18,-5.1 4.95,-4.85 C4.72,-4.6 4.37,-4.48 3.89,-4.48 C3.89,-4.48 2.04,-4.48 2.04,-4.48z M1.02,0 C1.02,0 2.04,0 2.04,0 C2.04,0 2.04,-3.53 2.04,-3.53 C2.04,-3.53 3.9,-3.53 3.9,-3.53 C4.68,-3.53 5.28,-3.74 5.71,-4.16 C6.13,-4.58 6.34,-5.15 6.34,-5.88 C6.34,-6.59 6.13,-7.16 5.71,-7.58 C5.28,-8 4.68,-8.21 3.9,-8.21 C3.9,-8.21 1.02,-8.21 1.02,-8.21 C1.02,-8.21 1.02,0 1.02,0z"></path><g opacity="1" transform="matrix(0.11726659536361694,0,0,0.11726659536361694,0,0)"></g></g></g></g><g stroke-linecap="butt" stroke-linejoin="round" stroke-miterlimit="4" style="display: inherit;" transform="matrix(1,0,0,1,-21.06954574584961,-0.6976122260093689)" opacity="1"><g><g transform="matrix(1,0,0,1,0,0)" opacity="1" style="display: block;"><path d=" M3.39,-0.77 C3.01,-0.77 2.68,-0.88 2.4,-1.08 C2.12,-1.28 1.91,-1.55 1.76,-1.88 C1.62,-2.21 1.55,-2.57 1.55,-2.96 C1.55,-3.34 1.62,-3.7 1.76,-4.03 C1.91,-4.36 2.12,-4.63 2.4,-4.83 C2.68,-5.03 3.01,-5.14 3.39,-5.14 C3.77,-5.14 4.1,-5.03 4.38,-4.83 C4.66,-4.63 4.87,-4.36 5.01,-4.03 C5.15,-3.7 5.22,-3.34 5.22,-2.96 C5.22,-2.57 5.15,-2.21 5.01,-1.88 C4.87,-1.55 4.66,-1.28 4.38,-1.08 C4.1,-0.88 3.77,-0.77 3.39,-0.77z M3.39,0.09 C3.96,0.09 4.46,-0.04 4.89,-0.32 C5.32,-0.6 5.65,-0.97 5.88,-1.44 C6.11,-1.91 6.23,-2.42 6.23,-2.96 C6.23,-3.49 6.11,-4 5.88,-4.47 C5.65,-4.94 5.32,-5.31 4.89,-5.59 C4.46,-5.87 3.96,-6 3.39,-6 C2.82,-6 2.32,-5.87 1.88,-5.59 C1.45,-5.31 1.12,-4.94 0.89,-4.47 C0.65,-4 0.54,-3.49 0.54,-2.96 C0.54,-2.42 0.65,-1.91 0.89,-1.44 C1.12,-0.97 1.45,-0.6 1.88,-0.32 C2.32,-0.04 2.82,0.09 3.39,0.09z"></path><g opacity="1" transform="matrix(0.11726659536361694,0,0,0.11726659536361694,0,0)"></g></g></g></g><g stroke-linecap="butt" stroke-linejoin="round" stroke-miterlimit="4" style="display: inherit;" transform="matrix(1,0,0,1,-14.185996055603027,-0.6976122260093689)" opacity="1"><g><g transform="matrix(1,0,0,1,0,0)" opacity="1" style="display: block;"><path d=" M0.88,0 C0.88,0 1.85,0 1.85,0 C1.85,0 1.85,-2.23 1.85,-2.23 C1.85,-3.17 2,-3.89 2.3,-4.39 C2.61,-4.88 2.99,-5.12 3.46,-5.12 C3.73,-5.12 3.98,-5.06 4.22,-4.93 C4.22,-4.93 4.42,-5.83 4.42,-5.83 C4.12,-5.95 3.85,-6 3.59,-6 C3.21,-6 2.88,-5.91 2.58,-5.72 C2.28,-5.53 2.04,-5.25 1.85,-4.89 C1.85,-4.89 1.85,-5.91 1.85,-5.91 C1.85,-5.91 0.88,-5.91 0.88,-5.91 C0.88,-5.91 0.88,0 0.88,0z"></path><g opacity="1" transform="matrix(0.11726659536361694,0,0,0.11726659536361694,0,0)"></g></g></g></g><g stroke-linecap="butt" stroke-linejoin="round" stroke-miterlimit="4" style="display: inherit;" transform="matrix(1,0,0,1,-9.518783569335938,-0.6976122260093689)" opacity="1"><g><g transform="matrix(1,0,0,1,0,0)" opacity="1" style="display: block;"><path d=" M2.84,0.09 C3.23,0.09 3.56,0.02 3.85,-0.12 C3.85,-0.12 3.6,-0.94 3.6,-0.94 C3.41,-0.83 3.19,-0.77 2.92,-0.77 C2.37,-0.77 2.1,-1.09 2.1,-1.74 C2.1,-1.74 2.1,-5.04 2.1,-5.04 C2.1,-5.04 3.68,-5.04 3.68,-5.04 C3.68,-5.04 3.68,-5.91 3.68,-5.91 C3.68,-5.91 2.1,-5.91 2.1,-5.91 C2.1,-5.91 2.1,-8.3 2.1,-8.3 C2.1,-8.3 1.13,-7.68 1.13,-7.68 C1.13,-7.68 1.13,-5.91 1.13,-5.91 C1.13,-5.91 0.13,-5.91 0.13,-5.91 C0.13,-5.91 0.13,-5.04 0.13,-5.04 C0.13,-5.04 1.13,-5.04 1.13,-5.04 C1.13,-5.04 1.13,-1.81 1.13,-1.81 C1.13,-1.17 1.28,-0.7 1.58,-0.38 C1.89,-0.06 2.31,0.09 2.84,0.09z"></path><g opacity="1" transform="matrix(0.11726659536361694,0,0,0.11726659536361694,0,0)"></g></g></g></g><g stroke-linecap="butt" stroke-linejoin="round" stroke-miterlimit="4" style="display: inherit;" transform="matrix(1,0,0,1,-5.273733615875244,-0.6976122260093689)" opacity="1"><g><g transform="matrix(1,0,0,1,0,0)" opacity="1" style="display: block;"><path d=" M2.7,0.09 C3.1,0.09 3.48,-0.02 3.83,-0.24 C4.18,-0.46 4.46,-0.76 4.67,-1.14 C4.67,-1.14 4.67,0 4.67,0 C4.67,0 5.63,0 5.63,0 C5.63,0 5.63,-5.91 5.63,-5.91 C5.63,-5.91 4.67,-5.91 4.67,-5.91 C4.67,-5.91 4.67,-3.4 4.67,-3.4 C4.67,-2.87 4.59,-2.4 4.44,-2.01 C4.29,-1.61 4.08,-1.3 3.81,-1.09 C3.55,-0.88 3.25,-0.77 2.93,-0.77 C2.58,-0.77 2.31,-0.88 2.13,-1.08 C1.94,-1.29 1.85,-1.6 1.85,-2.01 C1.85,-2.01 1.85,-5.91 1.85,-5.91 C1.85,-5.91 0.88,-5.91 0.88,-5.91 C0.88,-5.91 0.88,-1.79 0.88,-1.79 C0.88,-1.19 1.04,-0.73 1.37,-0.4 C1.7,-0.07 2.14,0.09 2.7,0.09z"></path><g opacity="1" transform="matrix(0.11726659536361694,0,0,0.11726659536361694,0,0)"></g></g></g></g><g stroke-linecap="butt" stroke-linejoin="round" stroke-miterlimit="4" style="display: inherit;" transform="matrix(1,0,0,1,1.3518295288085938,-0.6976122260093689)" opacity="1"><g><g transform="matrix(1,0,0,1,0,0)" opacity="1" style="display: block;"><path d=" M2.96,1.64 C2.44,1.64 2.05,1.54 1.78,1.35 C1.51,1.15 1.37,0.88 1.37,0.52 C1.37,0.15 1.5,-0.15 1.75,-0.38 C1.93,-0.35 2.14,-0.34 2.36,-0.34 C2.36,-0.34 3.42,-0.34 3.42,-0.34 C3.78,-0.34 4.04,-0.27 4.23,-0.13 C4.41,0 4.5,0.23 4.5,0.54 C4.5,0.88 4.37,1.14 4.1,1.34 C3.83,1.54 3.45,1.64 2.96,1.64z M2.94,-2.86 C2.62,-2.86 2.36,-2.96 2.14,-3.17 C1.93,-3.38 1.82,-3.66 1.82,-4.02 C1.82,-4.38 1.93,-4.67 2.14,-4.87 C2.36,-5.08 2.62,-5.18 2.94,-5.18 C3.26,-5.18 3.53,-5.08 3.74,-4.87 C3.95,-4.67 4.06,-4.38 4.06,-4.02 C4.06,-3.66 3.95,-3.38 3.74,-3.17 C3.53,-2.96 3.26,-2.86 2.94,-2.86z M2.96,2.49 C3.69,2.49 4.29,2.32 4.76,1.98 C5.23,1.65 5.46,1.13 5.46,0.45 C5.46,-0.09 5.29,-0.49 4.95,-0.76 C4.61,-1.03 4.16,-1.16 3.59,-1.16 C3.59,-1.16 2.17,-1.16 2.17,-1.16 C1.97,-1.16 1.81,-1.2 1.69,-1.29 C1.56,-1.38 1.5,-1.51 1.5,-1.69 C1.5,-1.95 1.64,-2.14 1.91,-2.27 C2.22,-2.12 2.57,-2.04 2.94,-2.04 C3.33,-2.04 3.67,-2.12 3.99,-2.28 C4.3,-2.44 4.55,-2.67 4.73,-2.97 C4.91,-3.27 5,-3.62 5,-4.02 C5,-4.44 4.88,-4.82 4.64,-5.16 C4.64,-5.16 5.48,-5.61 5.48,-5.61 C5.48,-5.61 5.05,-6.33 5.05,-6.33 C5.05,-6.33 4,-5.73 4,-5.73 C3.66,-5.91 3.31,-6 2.94,-6 C2.56,-6 2.21,-5.92 1.9,-5.76 C1.59,-5.59 1.34,-5.36 1.16,-5.06 C0.97,-4.76 0.88,-4.41 0.88,-4.02 C0.88,-3.52 1.02,-3.1 1.31,-2.74 C1.09,-2.63 0.92,-2.48 0.79,-2.29 C0.65,-2.1 0.59,-1.88 0.59,-1.63 C0.59,-1.24 0.73,-0.92 1.01,-0.68 C0.84,-0.55 0.7,-0.38 0.59,-0.16 C0.49,0.05 0.43,0.28 0.43,0.54 C0.43,1.15 0.66,1.63 1.12,1.97 C1.58,2.31 2.19,2.49 2.96,2.49z"></path><g opacity="1" transform="matrix(0.11726659536361694,0,0,0.11726659536361694,0,0)"></g></g></g></g><g stroke-linecap="butt" stroke-linejoin="round" stroke-miterlimit="4" style="display: inherit;" transform="matrix(1,0,0,1,7.215159893035889,-0.6976122260093689)" opacity="1"><g><g transform="matrix(1,0,0,1,0,0)" opacity="1" style="display: block;"><path d=" M2.7,0.09 C3.1,0.09 3.48,-0.02 3.83,-0.24 C4.18,-0.46 4.46,-0.76 4.67,-1.14 C4.67,-1.14 4.67,0 4.67,0 C4.67,0 5.63,0 5.63,0 C5.63,0 5.63,-5.91 5.63,-5.91 C5.63,-5.91 4.67,-5.91 4.67,-5.91 C4.67,-5.91 4.67,-3.4 4.67,-3.4 C4.67,-2.87 4.59,-2.4 4.44,-2.01 C4.29,-1.61 4.08,-1.3 3.81,-1.09 C3.55,-0.88 3.25,-0.77 2.93,-0.77 C2.58,-0.77 2.31,-0.88 2.13,-1.08 C1.94,-1.29 1.85,-1.6 1.85,-2.01 C1.85,-2.01 1.85,-5.91 1.85,-5.91 C1.85,-5.91 0.88,-5.91 0.88,-5.91 C0.88,-5.91 0.88,-1.79 0.88,-1.79 C0.88,-1.19 1.04,-0.73 1.37,-0.4 C1.7,-0.07 2.14,0.09 2.7,0.09z"></path><g opacity="1" transform="matrix(0.11726659536361694,0,0,0.11726659536361694,0,0)"></g></g></g></g><g stroke-linecap="butt" stroke-linejoin="round" stroke-miterlimit="4" style="display: inherit;" transform="matrix(1,0,0,1,13.840721130371094,-0.6976122260093689)" opacity="1"><g><g transform="matrix(1,0,0,1,0,0)" opacity="1" style="display: block;"><path d=" M1.59,-3.64 C1.68,-4.07 1.87,-4.43 2.16,-4.71 C2.45,-5 2.81,-5.14 3.24,-5.14 C3.71,-5.14 4.08,-5 4.36,-4.73 C4.64,-4.46 4.82,-4.1 4.89,-3.64 C4.89,-3.64 1.59,-3.64 1.59,-3.64z M3.24,0.09 C3.84,0.09 4.34,-0.04 4.74,-0.3 C5.15,-0.57 5.49,-0.99 5.77,-1.57 C5.77,-1.57 4.95,-1.92 4.95,-1.92 C4.75,-1.52 4.51,-1.22 4.26,-1.04 C4,-0.86 3.67,-0.77 3.26,-0.77 C2.73,-0.77 2.31,-0.96 2.01,-1.34 C1.71,-1.72 1.56,-2.21 1.55,-2.8 C1.55,-2.8 5.88,-2.8 5.88,-2.8 C5.88,-2.8 5.88,-3.21 5.88,-3.21 C5.88,-3.73 5.77,-4.2 5.56,-4.62 C5.35,-5.04 5.04,-5.38 4.64,-5.63 C4.25,-5.88 3.78,-6 3.24,-6 C2.68,-6 2.2,-5.87 1.79,-5.59 C1.39,-5.32 1.08,-4.95 0.86,-4.49 C0.65,-4.02 0.54,-3.51 0.54,-2.96 C0.54,-2.4 0.65,-1.89 0.86,-1.42 C1.08,-0.96 1.39,-0.59 1.79,-0.32 C2.2,-0.04 2.68,0.09 3.24,0.09z"></path><g opacity="1" transform="matrix(0.11726659536361694,0,0,0.11726659536361694,0,0)"></g></g></g></g><g stroke-linecap="butt" stroke-linejoin="round" stroke-miterlimit="4" style="display: inherit;" transform="matrix(1,0,0,1,20.372472763061523,-0.6976122260093689)" opacity="1"><g><g transform="matrix(1,0,0,1,0,0)" opacity="1" style="display: block;"><path d=" M2.7,0.09 C3.27,0.09 3.73,-0.07 4.07,-0.39 C4.41,-0.71 4.59,-1.15 4.59,-1.7 C4.59,-2.47 4.1,-3.04 3.14,-3.39 C2.65,-3.57 2.31,-3.73 2.12,-3.88 C1.93,-4.02 1.83,-4.2 1.83,-4.42 C1.83,-4.64 1.9,-4.81 2.05,-4.94 C2.2,-5.07 2.38,-5.14 2.6,-5.14 C3.06,-5.14 3.43,-4.93 3.69,-4.51 C3.69,-4.51 4.33,-5.08 4.33,-5.08 C3.94,-5.7 3.37,-6 2.62,-6 C2.11,-6 1.7,-5.86 1.38,-5.56 C1.05,-5.27 0.89,-4.89 0.89,-4.42 C0.89,-3.99 1.02,-3.65 1.27,-3.39 C1.53,-3.13 1.89,-2.92 2.36,-2.74 C2.8,-2.58 3.13,-2.42 3.34,-2.27 C3.55,-2.13 3.66,-1.92 3.66,-1.67 C3.66,-1.38 3.57,-1.16 3.39,-1 C3.22,-0.85 2.99,-0.77 2.7,-0.77 C2.33,-0.77 2.03,-0.88 1.81,-1.08 C1.59,-1.28 1.42,-1.57 1.3,-1.95 C1.3,-1.95 0.49,-1.51 0.49,-1.51 C0.61,-1.07 0.86,-0.69 1.23,-0.38 C1.61,-0.06 2.1,0.09 2.7,0.09z"></path><g opacity="1" transform="matrix(0.11726659536361694,0,0,0.11726659536361694,0,0)"></g></g></g></g><g stroke-linecap="butt" stroke-linejoin="round" stroke-miterlimit="4" style="display: inherit;" transform="matrix(1,0,0,1,25.473567962646484,-0.6976122260093689)" opacity="1"><g><g transform="matrix(1,0,0,1,0,0)" opacity="1" style="display: block;"><path d=" M1.59,-3.64 C1.68,-4.07 1.87,-4.43 2.16,-4.71 C2.45,-5 2.81,-5.14 3.24,-5.14 C3.71,-5.14 4.08,-5 4.36,-4.73 C4.64,-4.46 4.82,-4.1 4.89,-3.64 C4.89,-3.64 1.59,-3.64 1.59,-3.64z M3.24,0.09 C3.84,0.09 4.34,-0.04 4.74,-0.3 C5.15,-0.57 5.49,-0.99 5.77,-1.57 C5.77,-1.57 4.95,-1.92 4.95,-1.92 C4.75,-1.52 4.51,-1.22 4.26,-1.04 C4,-0.86 3.67,-0.77 3.26,-0.77 C2.73,-0.77 2.31,-0.96 2.01,-1.34 C1.71,-1.72 1.56,-2.21 1.55,-2.8 C1.55,-2.8 5.88,-2.8 5.88,-2.8 C5.88,-2.8 5.88,-3.21 5.88,-3.21 C5.88,-3.73 5.77,-4.2 5.56,-4.62 C5.35,-5.04 5.04,-5.38 4.64,-5.63 C4.25,-5.88 3.78,-6 3.24,-6 C2.68,-6 2.2,-5.87 1.79,-5.59 C1.39,-5.32 1.08,-4.95 0.86,-4.49 C0.65,-4.02 0.54,-3.51 0.54,-2.96 C0.54,-2.4 0.65,-1.89 0.86,-1.42 C1.08,-0.96 1.39,-0.59 1.79,-0.32 C2.2,-0.04 2.68,0.09 3.24,0.09z"></path><g opacity="1" transform="matrix(0.11726659536361694,0,0,0.11726659536361694,0,0)"></g></g></g></g></g></g><g clip-path="url(#__lottie_element_259)" style="display: none;" transform="matrix(1,0,0,1,-304.5,-332)" opacity="1"><g transform="matrix(0.5470359921455383,0,0,0.5470359921455383,437.62237548828125,398.1925048828125)" opacity="0.5" style="display: block;"><path stroke-linecap="butt" stroke-linejoin="miter" fill-opacity="0" stroke-miterlimit="4" stroke="rgb(255,255,255)" stroke-opacity="1" stroke-width="2" d="M0 0"></path><g opacity="0" transform="matrix(1,0,0,1,0,0)"><g opacity="1" transform="matrix(1,0,0,1,0,0)"><path stroke-linecap="butt" stroke-linejoin="miter" fill-opacity="0" stroke-miterlimit="4" stroke="rgb(218,255,0)" stroke-opacity="1" stroke-width="2" d="M0 0"></path></g><path stroke-linecap="butt" stroke-linejoin="miter" fill-opacity="0" stroke-miterlimit="4" stroke="rgb(255,0,0)" stroke-opacity="0.5" stroke-width="10" d="M0 0"></path></g></g><g transform="matrix(0.05175507813692093,0,0,0.05175507813692093,738.9617309570312,820.835693359375)" opacity="1" style="display: block;"><g opacity="1" transform="matrix(1,0,0,1,0,0)"><path stroke-linecap="butt" stroke-linejoin="miter" fill-opacity="0" stroke-miterlimit="4" stroke="rgb(0,0,0)" stroke-opacity="1" stroke-width="3" d=" M-61.81100082397461,169.28799438476562 C-62.875999450683594,169.28799438476562 -64.44200134277344,169.60800170898438 -64.44200134277344,171.29800415039062 C-64.44200134277344,176.6959991455078 -64.49600219726562,189.64500427246094 -64.43900299072266,192.9029998779297 C-67.91899871826172,191.37600708007812 -74.66600036621094,188.21600341796875 -74.66600036621094,192.7259979248047 C-74.66600036621094,194.6439971923828 -65.5739974975586,202.92100524902344 -63.512001037597656,204.76100158691406 C-61.27899932861328,206.7530059814453 -59.361000061035156,208.84800720214844 -54.21200180053711,208.84800720214844 C-49.027000427246094,208.77699279785156 -45.01499938964844,205.43899536132812 -43.77199935913086,200.3249969482422 C-43.77199935913086,194.71400451660156 -43.77199935913086,186.40499877929688 -43.77199935913086,183.77699279785156 C-43.77199935913086,181.22000122070312 -45.29800033569336,181.0780029296875 -46.18600082397461,181.0780029296875 C-47.358001708984375,181.0780029296875 -48.28799819946289,180.68699645996094 -48.28799819946289,183.63400268554688 C-48.28799819946289,184.66200256347656 -48.369998931884766,185.83700561523438 -48.369998931884766,187.48800659179688 C-48.65399932861328,187.48800659179688 -48.8849983215332,187.49000549316406 -49.387001037597656,187.49000549316406 C-49.387001037597656,185.6510009765625 -49.4109992980957,184.5500030517578 -49.4109992980957,183.6540069580078 C-49.4109992980957,180.0540008544922 -50.361000061035156,179.40899658203125 -51.58399963378906,179.40899658203125 C-52.87200164794922,179.40899658203125 -53.50400161743164,179.57699584960938 -53.50400161743164,181.77499389648438 C-53.50400161743164,182.66600036621094 -53.430999755859375,186.3979949951172 -53.430999755859375,187.42799377441406 C-53.821998596191406,187.42799377441406 -54.279998779296875,187.42999267578125 -54.5989990234375,187.42999267578125 C-54.5989990234375,185.95399475097656 -54.58599853515625,183.86599731445312 -54.58599853515625,181.78599548339844 C-54.58599853515625,177.74000549316406 -55.5880012512207,177.74000549316406 -56.62699890136719,177.74000549316406 C-57.97600173950195,177.74000549316406 -58.46500015258789,177.8070068359375 -58.46500015258789,179.32899475097656 C-58.46500015258789,180.74099731445312 -58.54399871826172,186.50599670410156 -58.54399871826172,187.46499633789062 C-58.89899826049805,187.46499633789062 -59.395999908447266,187.5070037841797 -59.6619987487793,187.5070037841797 C-59.6619987487793,185.62399291992188 -59.58100128173828,180.26100158691406 -59.58100128173828,179.34100341796875 C-59.58100128173828,177.8820037841797 -59.354000091552734,172.87100219726562 -59.354000091552734,171.2010040283203 C-59.354000091552734,169.96200561523438 -60.67499923706055,169.28799438476562 -61.81100082397461,169.28799438476562z"></path><path fill="rgb(255,255,255)" fill-opacity="1" d=" M-61.81100082397461,169.28799438476562 C-62.875999450683594,169.28799438476562 -64.44200134277344,169.60800170898438 -64.44200134277344,171.29800415039062 C-64.44200134277344,176.6959991455078 -64.49600219726562,189.64500427246094 -64.43900299072266,192.9029998779297 C-67.91899871826172,191.37600708007812 -74.66600036621094,188.21600341796875 -74.66600036621094,192.7259979248047 C-74.66600036621094,194.6439971923828 -65.5739974975586,202.92100524902344 -63.512001037597656,204.76100158691406 C-61.27899932861328,206.7530059814453 -59.361000061035156,208.84800720214844 -54.21200180053711,208.84800720214844 C-49.027000427246094,208.77699279785156 -45.01499938964844,205.43899536132812 -43.77199935913086,200.3249969482422 C-43.77199935913086,194.71400451660156 -43.77199935913086,186.40499877929688 -43.77199935913086,183.77699279785156 C-43.77199935913086,181.22000122070312 -45.29800033569336,181.0780029296875 -46.18600082397461,181.0780029296875 C-47.358001708984375,181.0780029296875 -48.28799819946289,180.68699645996094 -48.28799819946289,183.63400268554688 C-48.28799819946289,184.66200256347656 -48.369998931884766,185.83700561523438 -48.369998931884766,187.48800659179688 C-48.65399932861328,187.48800659179688 -48.8849983215332,187.49000549316406 -49.387001037597656,187.49000549316406 C-49.387001037597656,185.6510009765625 -49.4109992980957,184.5500030517578 -49.4109992980957,183.6540069580078 C-49.4109992980957,180.0540008544922 -50.361000061035156,179.40899658203125 -51.58399963378906,179.40899658203125 C-52.87200164794922,179.40899658203125 -53.50400161743164,179.57699584960938 -53.50400161743164,181.77499389648438 C-53.50400161743164,182.66600036621094 -53.430999755859375,186.3979949951172 -53.430999755859375,187.42799377441406 C-53.821998596191406,187.42799377441406 -54.279998779296875,187.42999267578125 -54.5989990234375,187.42999267578125 C-54.5989990234375,185.95399475097656 -54.58599853515625,183.86599731445312 -54.58599853515625,181.78599548339844 C-54.58599853515625,177.74000549316406 -55.5880012512207,177.74000549316406 -56.62699890136719,177.74000549316406 C-57.97600173950195,177.74000549316406 -58.46500015258789,177.8070068359375 -58.46500015258789,179.32899475097656 C-58.46500015258789,180.74099731445312 -58.54399871826172,186.50599670410156 -58.54399871826172,187.46499633789062 C-58.89899826049805,187.46499633789062 -59.395999908447266,187.5070037841797 -59.6619987487793,187.5070037841797 C-59.6619987487793,185.62399291992188 -59.58100128173828,180.26100158691406 -59.58100128173828,179.34100341796875 C-59.58100128173828,177.8820037841797 -59.354000091552734,172.87100219726562 -59.354000091552734,171.2010040283203 C-59.354000091552734,169.96200561523438 -60.67499923706055,169.28799438476562 -61.81100082397461,169.28799438476562z"></path></g><g opacity="0" transform="matrix(1,0,0,1,0,0)"><path fill="rgb(255,255,255)" fill-opacity="1" d=" M-64.16899871826172,166.36050415039062 C-64.16789245605469,166.3475341796875 -64.15064239501953,166.36141967773438 -64.13050079345703,166.39151000976562 C-64.13050079345703,166.39151000976562 -64.13050079345703,166.39151000976562 -64.13050079345703,166.39151000976562 C-64.11035919189453,166.4215850830078 -64.1264877319336,166.43792724609375 -64.16650390625,166.42800903320312 C-64.16650390625,166.42800903320312 -64.16650390625,166.42800903320312 -64.16650390625,166.42800903320312 C-64.20651245117188,166.41807556152344 -64.23564147949219,166.4151611328125 -64.23149871826172,166.4215087890625 C-64.23149871826172,166.4215087890625 -64.23149871826172,166.4215087890625 -64.23149871826172,166.4215087890625 C-64.22735595703125,166.42784118652344 -64.22982788085938,166.42381286621094 -64.23699951171875,166.41250610351562 C-64.23699951171875,166.41250610351562 -64.23699951171875,166.41250610351562 -64.23699951171875,166.41250610351562 C-64.24417114257812,166.40118408203125 -64.24260711669922,166.3713836669922 -64.23350524902344,166.34600830078125 C-64.23350524902344,166.34600830078125 -64.23350524902344,166.34600830078125 -64.23350524902344,166.34600830078125 C-64.22439575195312,166.32061767578125 -64.20669555664062,166.31881713867188 -64.19400024414062,166.34201049804688 C-64.19400024414062,166.34201049804688 -64.19400024414062,166.34201049804688 -64.19400024414062,166.34201049804688 C-64.18130493164062,166.3651885986328 -64.17010498046875,166.37347412109375 -64.16899871826172,166.36050415039062 C-64.16899871826172,166.36050415039062 -64.16899871826172,166.36050415039062 -64.16899871826172,166.36050415039062z"></path><path stroke-linecap="butt" stroke-linejoin="miter" fill-opacity="0" stroke-miterlimit="4" stroke="rgb(0,0,0)" stroke-opacity="1" stroke-width="1" d=" M-64.16899871826172,166.36050415039062 C-64.16789245605469,166.3475341796875 -64.15064239501953,166.36141967773438 -64.13050079345703,166.39151000976562 C-64.13050079345703,166.39151000976562 -64.13050079345703,166.39151000976562 -64.13050079345703,166.39151000976562 C-64.11035919189453,166.4215850830078 -64.1264877319336,166.43792724609375 -64.16650390625,166.42800903320312 C-64.16650390625,166.42800903320312 -64.16650390625,166.42800903320312 -64.16650390625,166.42800903320312 C-64.20651245117188,166.41807556152344 -64.23564147949219,166.4151611328125 -64.23149871826172,166.4215087890625 C-64.23149871826172,166.4215087890625 -64.23149871826172,166.4215087890625 -64.23149871826172,166.4215087890625 C-64.22735595703125,166.42784118652344 -64.22982788085938,166.42381286621094 -64.23699951171875,166.41250610351562 C-64.23699951171875,166.41250610351562 -64.23699951171875,166.41250610351562 -64.23699951171875,166.41250610351562 C-64.24417114257812,166.40118408203125 -64.24260711669922,166.3713836669922 -64.23350524902344,166.34600830078125 C-64.23350524902344,166.34600830078125 -64.23350524902344,166.34600830078125 -64.23350524902344,166.34600830078125 C-64.22439575195312,166.32061767578125 -64.20669555664062,166.31881713867188 -64.19400024414062,166.34201049804688 C-64.19400024414062,166.34201049804688 -64.19400024414062,166.34201049804688 -64.19400024414062,166.34201049804688 C-64.18130493164062,166.3651885986328 -64.17010498046875,166.37347412109375 -64.16899871826172,166.36050415039062 C-64.16899871826172,166.36050415039062 -64.16899871826172,166.36050415039062 -64.16899871826172,166.36050415039062z"></path></g></g></g></g></g></svg>
