<svg xmlns="http://www.w3.org/2000/svg" xmlns:xlink="http://www.w3.org/1999/xlink" viewBox="0 0 250 250" width="180" height="100%" preserveAspectRatio="xMidYMid meet" style="width: 100%; height: 100%; content-visibility: visible;"><defs><clipPath id="__lottie_element_171"><rect width="250" height="250" x="0" y="0"></rect></clipPath><clipPath id="__lottie_element_173"><path d="M0,0 L962,0 L962,844 L0,844z"></path></clipPath></defs><g clip-path="url(#__lottie_element_171)"><g clip-path="url(#__lottie_element_173)" transform="matrix(0.699999988079071,0,0,0.699999988079071,-219.19998168945312,-176.39999389648438)" opacity="1" style="display: block;"><g transform="matrix(0.9800000190734863,0,0,0.9800000190734863,494.09100341796875,429.7690124511719)" opacity="1" style="display: block;"><g opacity="1" transform="matrix(1.0299999713897705,0,0,1.0299999713897705,0.1589999943971634,0.48100000619888306)"><path stroke-linecap="butt" stroke-linejoin="miter" fill-opacity="0" stroke-miterlimit="4" stroke-dasharray=" 18" stroke-dashoffset="0" stroke="rgb(170,238,196)" stroke-opacity="1" stroke-width="10" d=" M0,-136.25 C75.19637298583984,-136.25 136.25,-75.19637298583984 136.25,0 C136.25,75.19637298583984 75.19637298583984,136.25 0,136.25 C-75.19637298583984,136.25 -136.25,75.19637298583984 -136.25,0 C-136.25,-75.19637298583984 -75.19637298583984,-136.25 0,-136.25z"></path></g></g><g transform="matrix(-1,0,0,-1,492.8500061035156,333.1860046386719)" opacity="1" style="display: block;"><g opacity="1" transform="matrix(0,-2,2,0,0,0)"><path fill="rgb(59,59,59)" fill-opacity="1" d=" M-4.334000110626221,-2.7860000133514404 C-5.873000144958496,-2.7860000133514404 -7.119999885559082,-1.5390000343322754 -7.119999885559082,0 C-7.119999885559082,1.5390000343322754 -5.873000144958496,2.7860000133514404 -4.334000110626221,2.7860000133514404 C-4.334000110626221,2.7860000133514404 4.334000110626221,2.7860000133514404 4.334000110626221,2.7860000133514404 C5.873000144958496,2.7860000133514404 7.119999885559082,1.5390000343322754 7.119999885559082,0 C7.119999885559082,-1.5390000343322754 5.873000144958496,-2.7860000133514404 4.334000110626221,-2.7860000133514404 C4.334000110626221,-2.7860000133514404 -4.334000110626221,-2.7860000133514404 -4.334000110626221,-2.7860000133514404z"></path></g></g><g transform="matrix(-1,0,0,-1,492.8500061035156,527.5910034179688)" opacity="1" style="display: block;"><g opacity="1" transform="matrix(0,-2,2,0,0,0)"><path fill="rgb(59,59,59)" fill-opacity="1" d=" M-4.334000110626221,-2.7860000133514404 C-5.873000144958496,-2.7860000133514404 -7.119999885559082,-1.5390000343322754 -7.119999885559082,0 C-7.119999885559082,1.5390000343322754 -5.873000144958496,2.7860000133514404 -4.334000110626221,2.7860000133514404 C-4.334000110626221,2.7860000133514404 4.334000110626221,2.7860000133514404 4.334000110626221,2.7860000133514404 C5.873000144958496,2.7860000133514404 7.119999885559082,1.5390000343322754 7.119999885559082,0 C7.119999885559082,-1.5390000343322754 5.873000144958496,-2.7860000133514404 4.334000110626221,-2.7860000133514404 C4.334000110626221,-2.7860000133514404 -4.334000110626221,-2.7860000133514404 -4.334000110626221,-2.7860000133514404z"></path></g></g><g transform="matrix(-1,0,0,-1,590.0419921875,430.38800048828125)" opacity="1" style="display: block;"><g opacity="1" transform="matrix(2,0,0,2,0,0)"><path fill="rgb(59,59,59)" fill-opacity="1" d=" M-4.334000110626221,-2.7860000133514404 C-5.873000144958496,-2.7860000133514404 -7.119999885559082,-1.5390000343322754 -7.119999885559082,0 C-7.119999885559082,1.5390000343322754 -5.873000144958496,2.7860000133514404 -4.334000110626221,2.7860000133514404 C-4.334000110626221,2.7860000133514404 4.334000110626221,2.7860000133514404 4.334000110626221,2.7860000133514404 C5.873000144958496,2.7860000133514404 7.119999885559082,1.5390000343322754 7.119999885559082,0 C7.119999885559082,-1.5390000343322754 5.873000144958496,-2.7860000133514404 4.334000110626221,-2.7860000133514404 C4.334000110626221,-2.7860000133514404 -4.334000110626221,-2.7860000133514404 -4.334000110626221,-2.7860000133514404z"></path></g></g><g transform="matrix(-1,0,0,-1,395.63800048828125,430.38800048828125)" opacity="1" style="display: block;"><g opacity="1" transform="matrix(2,0,0,2,0,0)"><path fill="rgb(59,59,59)" fill-opacity="1" d=" M-4.334000110626221,-2.7860000133514404 C-5.873000144958496,-2.7860000133514404 -7.119999885559082,-1.5390000343322754 -7.119999885559082,0 C-7.119999885559082,1.5390000343322754 -5.873000144958496,2.7860000133514404 -4.334000110626221,2.7860000133514404 C-4.334000110626221,2.7860000133514404 4.334000110626221,2.7860000133514404 4.334000110626221,2.7860000133514404 C5.873000144958496,2.7860000133514404 7.119999885559082,1.5390000343322754 7.119999885559082,0 C7.119999885559082,-1.5390000343322754 5.873000144958496,-2.7860000133514404 4.334000110626221,-2.7860000133514404 C4.334000110626221,-2.7860000133514404 -4.334000110626221,-2.7860000133514404 -4.334000110626221,-2.7860000133514404z"></path></g></g><g transform="matrix(-1,0,0,-1,561.5819702148438,361.656005859375)" opacity="1" style="display: block;"><g opacity="1" transform="matrix(1.4142135381698608,-1.4142135381698608,1.4142135381698608,1.4142135381698608,0,0)"><path fill="rgb(59,59,59)" fill-opacity="1" d=" M-4.334000110626221,-2.7860000133514404 C-5.873000144958496,-2.7860000133514404 -7.119999885559082,-1.5390000343322754 -7.119999885559082,0 C-7.119999885559082,1.5390000343322754 -5.873000144958496,2.7860000133514404 -4.334000110626221,2.7860000133514404 C-4.334000110626221,2.7860000133514404 4.334000110626221,2.7860000133514404 4.334000110626221,2.7860000133514404 C5.873000144958496,2.7860000133514404 7.119999885559082,1.5390000343322754 7.119999885559082,0 C7.119999885559082,-1.5390000343322754 5.873000144958496,-2.7860000133514404 4.334000110626221,-2.7860000133514404 C4.334000110626221,-2.7860000133514404 -4.334000110626221,-2.7860000133514404 -4.334000110626221,-2.7860000133514404z"></path></g></g><g transform="matrix(-1,0,0,-1,424.11700439453125,499.1210021972656)" opacity="1" style="display: block;"><g opacity="1" transform="matrix(1.4142135381698608,-1.4142135381698608,1.4142135381698608,1.4142135381698608,0,0)"><path fill="rgb(59,59,59)" fill-opacity="1" d=" M-4.334000110626221,-2.7860000133514404 C-5.873000144958496,-2.7860000133514404 -7.119999885559082,-1.5390000343322754 -7.119999885559082,0 C-7.119999885559082,1.5390000343322754 -5.873000144958496,2.7860000133514404 -4.334000110626221,2.7860000133514404 C-4.334000110626221,2.7860000133514404 4.334000110626221,2.7860000133514404 4.334000110626221,2.7860000133514404 C5.873000144958496,2.7860000133514404 7.119999885559082,1.5390000343322754 7.119999885559082,0 C7.119999885559082,-1.5390000343322754 5.873000144958496,-2.7860000133514404 4.334000110626221,-2.7860000133514404 C4.334000110626221,-2.7860000133514404 -4.334000110626221,-2.7860000133514404 -4.334000110626221,-2.7860000133514404z"></path></g></g><g transform="matrix(1,0,0,1,424.1130065917969,361.656005859375)" opacity="1" style="display: block;"><g opacity="1" transform="matrix(1.4142135381698608,1.4142135381698608,-1.4142135381698608,1.4142135381698608,0,0)"><path fill="rgb(59,59,59)" fill-opacity="1" d=" M-4.334000110626221,-2.7860000133514404 C-5.873000144958496,-2.7860000133514404 -7.119999885559082,-1.5390000343322754 -7.119999885559082,0 C-7.119999885559082,1.5390000343322754 -5.873000144958496,2.7860000133514404 -4.334000110626221,2.7860000133514404 C-4.334000110626221,2.7860000133514404 4.334000110626221,2.7860000133514404 4.334000110626221,2.7860000133514404 C5.873000144958496,2.7860000133514404 7.119999885559082,1.5390000343322754 7.119999885559082,0 C7.119999885559082,-1.5390000343322754 5.873000144958496,-2.7860000133514404 4.334000110626221,-2.7860000133514404 C4.334000110626221,-2.7860000133514404 -4.334000110626221,-2.7860000133514404 -4.334000110626221,-2.7860000133514404z"></path></g></g><g transform="matrix(1,0,0,1,561.5770263671875,499.1210021972656)" opacity="1" style="display: block;"><g opacity="1" transform="matrix(1.4142135381698608,1.4142135381698608,-1.4142135381698608,1.4142135381698608,0,0)"><path fill="rgb(59,59,59)" fill-opacity="1" d=" M-4.334000110626221,-2.7860000133514404 C-5.873000144958496,-2.7860000133514404 -7.119999885559082,-1.5390000343322754 -7.119999885559082,0 C-7.119999885559082,1.5390000343322754 -5.873000144958496,2.7860000133514404 -4.334000110626221,2.7860000133514404 C-4.334000110626221,2.7860000133514404 4.334000110626221,2.7860000133514404 4.334000110626221,2.7860000133514404 C5.873000144958496,2.7860000133514404 7.119999885559082,1.5390000343322754 7.119999885559082,0 C7.119999885559082,-1.5390000343322754 5.873000144958496,-2.7860000133514404 4.334000110626221,-2.7860000133514404 C4.334000110626221,-2.7860000133514404 -4.334000110626221,-2.7860000133514404 -4.334000110626221,-2.7860000133514404z"></path></g></g><g transform="matrix(1,0,0,1,492.8489990234375,405.0039978027344)" opacity="1" style="display: block;"><g opacity="1" transform="matrix(0,-2,2,0,0,0)"><path fill="rgb(255,255,255)" fill-opacity="1" d=" M-9.906000137329102,-2.7860000133514404 C-11.444999694824219,-2.7860000133514404 -12.692000389099121,-1.5390000343322754 -12.692000389099121,0 C-12.692000389099121,1.5390000343322754 -11.444999694824219,2.7860000133514404 -9.906000137329102,2.7860000133514404 C-9.906000137329102,2.7860000133514404 9.906000137329102,2.7860000133514404 9.906000137329102,2.7860000133514404 C11.444999694824219,2.7860000133514404 12.692000389099121,1.5390000343322754 12.692000389099121,0 C12.692000389099121,-1.5390000343322754 11.444999694824219,-2.7860000133514404 9.906000137329102,-2.7860000133514404 C9.906000137329102,-2.7860000133514404 -9.906000137329102,-2.7860000133514404 -9.906000137329102,-2.7860000133514404z"></path></g></g><g transform="matrix(1,-0.0001761860039550811,0.0001761860039550811,1,511.53570556640625,446.8476867675781)" opacity="1" style="display: block;"><g opacity="1" transform="matrix(1.337119460105896,1.4873169660568237,-1.4873169660568237,1.337119460105896,0,0)"><path fill="rgb(255,255,255)" fill-opacity="1" d=" M-14.104000091552734,-2.7860000133514404 C-15.642999649047852,-2.7860000133514404 -16.889999389648438,-1.5390000343322754 -16.889999389648438,0 C-16.889999389648438,1.5390000343322754 -15.642999649047852,2.7860000133514404 -14.104000091552734,2.7860000133514404 C-14.104000091552734,2.7860000133514404 14.104000091552734,2.7860000133514404 14.104000091552734,2.7860000133514404 C15.642999649047852,2.7860000133514404 16.889999389648438,1.5390000343322754 16.889999389648438,0 C16.889999389648438,-1.5390000343322754 15.642999649047852,-2.7860000133514404 14.104000091552734,-2.7860000133514404 C14.104000091552734,-2.7860000133514404 -14.104000091552734,-2.7860000133514404 -14.104000091552734,-2.7860000133514404z"></path></g></g><g transform="matrix(0.80875164270401,0.5881502628326416,-0.5881502628326416,0.80875164270401,494.09100341796875,429.7690124511719)" opacity="1" style="display: block;"><g opacity="1" transform="matrix(2,0,0,2,0,0)"><path stroke-linecap="round" stroke-linejoin="round" fill-opacity="0" stroke="rgb(170,238,196)" stroke-opacity="1" stroke-width="8.049" d=" M-37.14899826049805,-58.19499969482422 C-56.321998596191406,-45.93000030517578 -69.03199768066406,-24.448999404907227 -69.03199768066406,0 C-69.03199768066406,38.125 -38.125,69.03199768066406 0,69.03199768066406 C38.125,69.03199768066406 69.03199768066406,38.125 69.03199768066406,0 C69.03199768066406,-27.18400001525879 53.319000244140625,-50.69900131225586 30.479000091552734,-61.95600128173828"></path></g></g><g transform="matrix(0.7920872569084167,0.6104078888893127,-0.6104078888893127,0.7920872569084167,494.09100341796875,429.7690124511719)" opacity="1" style="display: block;"><g opacity="1" transform="matrix(1.9620728492736816,0.3876468539237976,-0.3876468539237976,1.9620728492736816,-67.5,-102.5)"><path stroke-linecap="round" stroke-linejoin="miter" fill-opacity="0" stroke-miterlimit="4" stroke="rgb(170,238,196)" stroke-opacity="1" stroke-width="9" d=" M-21.719999313354492,-9.831000328063965 C-21.719999313354492,-9.831000328063965 -0.5479999780654907,-9.831000328063965 -0.5479999780654907,-9.831000328063965"></path></g><g opacity="1" transform="matrix(-0.2711198925971985,1.9815382957458496,-1.9815382957458496,-0.2711198925971985,-67.5,-102.5)"><path stroke-linecap="round" stroke-linejoin="miter" fill-opacity="0" stroke-miterlimit="4" stroke="rgb(170,238,196)" stroke-opacity="1" stroke-width="9" d=" M-9.718000411987305,0 C-9.718000411987305,0 9.718000411987305,0 9.718000411987305,0"></path></g></g></g></g></svg>
